<?xml version="1.0" standalone="no"?>
<!DOCTYPE svg PUBLIC "-//W3C//DTD SVG 20010904//EN"
 "http://www.w3.org/TR/2001/REC-SVG-20010904/DTD/svg10.dtd">
<svg version="1.0" xmlns="http://www.w3.org/2000/svg"
 width="1024.000000pt" height="1024.000000pt" viewBox="0 0 1024.000000 1024.000000"
 preserveAspectRatio="xMidYMid meet">

<g transform="translate(0.000000,1024.000000) scale(0.100000,-0.100000)"
fill="#000000" stroke="none">
<path d="M3553 9363 c-7 -2 -46 -53 -87 -112 -74 -107 -165 -210 -219 -247
-24 -17 -29 -30 -39 -94 -6 -41 -17 -87 -24 -101 -7 -15 -61 -59 -119 -98 -58
-40 -112 -82 -119 -94 -24 -39 -81 -335 -91 -472 -3 -49 -13 -129 -21 -178 -8
-48 -14 -98 -14 -111 0 -29 -15 -42 -62 -50 -33 -6 -41 -3 -88 39 -58 52 -74
59 -145 70 -27 4 -74 16 -105 28 -37 15 -78 22 -127 22 -81 0 -112 -16 -145
-75 -18 -33 -19 -51 -13 -325 l6 -290 -30 -74 c-53 -128 -91 -258 -91 -315 0
-89 12 -108 134 -210 148 -125 204 -183 215 -226 5 -19 12 -89 15 -155 7 -137
21 -227 42 -267 17 -33 79 -79 228 -173 184 -115 280 -141 362 -98 199 104
202 105 240 78 12 -7 33 -48 48 -89 41 -111 77 -160 142 -192 54 -26 58 -27
172 -19 236 17 248 15 330 -33 189 -113 280 -205 322 -327 50 -145 158 -640
190 -870 6 -44 20 -123 30 -176 11 -53 24 -127 30 -165 15 -102 48 -325 53
-359 18 -106 27 -191 47 -425 6 -69 15 -150 20 -180 31 -185 77 -613 94 -865
3 -38 8 -109 11 -157 4 -49 4 -88 1 -88 -8 0 -188 362 -228 459 -41 98 -155
321 -262 515 -83 147 -89 163 -100 244 -14 103 -12 181 5 214 6 12 38 50 69
83 66 69 76 99 61 181 -6 32 -11 61 -11 66 0 4 24 19 53 34 84 42 127 92 127
149 0 14 -17 67 -37 118 l-38 92 0 155 c0 171 0 169 -76 281 -20 31 -45 82
-55 115 -21 73 -27 82 -91 132 -59 47 -58 44 -83 194 -26 150 -32 156 -156
188 -103 27 -146 46 -202 88 -38 29 -101 38 -159 23 -32 -9 -55 -26 -98 -75
-31 -34 -68 -72 -84 -84 l-28 -21 -48 70 c-51 74 -85 105 -180 161 -48 28 -81
39 -170 53 -106 17 -178 44 -285 105 -20 11 -71 25 -115 31 -44 6 -138 24
-209 40 -70 16 -146 29 -167 29 -80 0 -95 -47 -108 -332 -8 -170 -11 -191 -35
-242 -43 -90 -31 -166 49 -327 24 -47 55 -130 70 -184 15 -54 35 -118 46 -142
32 -74 29 -79 -53 -98 -96 -22 -153 -47 -173 -78 -16 -25 -15 -28 49 -150 71
-134 101 -209 112 -284 8 -58 21 -74 92 -115 70 -40 116 -86 148 -151 36 -71
45 -80 159 -155 120 -80 179 -102 260 -100 83 2 145 20 268 77 83 39 116 50
155 49 31 0 74 10 117 27 38 16 87 30 110 33 37 4 44 1 67 -26 14 -17 34 -54
44 -82 36 -101 74 -130 228 -175 47 -13 71 -28 111 -69 93 -94 256 -378 425
-741 88 -189 119 -261 264 -615 42 -102 103 -248 136 -325 33 -77 76 -187 95
-244 34 -103 56 -141 81 -141 23 0 26 40 15 154 -49 475 -65 618 -96 831 -28
194 -42 325 -49 440 l-5 80 10 -65 c5 -36 16 -114 25 -175 8 -60 21 -148 29
-195 21 -127 82 -604 100 -775 17 -161 41 -285 56 -285 18 0 22 57 10 154 -35
299 -74 599 -101 775 -11 74 -26 195 -35 270 -9 75 -22 174 -30 221 -8 47 -26
180 -40 295 -15 116 -30 228 -35 250 -5 22 -16 96 -25 165 -9 69 -31 222 -51
340 -19 118 -48 298 -65 400 -16 102 -38 237 -49 300 -11 63 -36 213 -55 333
-19 120 -44 259 -55 310 -25 114 -25 140 1 62 28 -89 91 -364 124 -550 8 -44
26 -143 40 -220 52 -285 135 -786 160 -965 14 -102 37 -250 50 -330 13 -80 27
-172 30 -205 4 -33 15 -130 25 -215 11 -85 29 -231 40 -325 12 -93 34 -269 50
-390 15 -121 31 -254 35 -295 9 -101 44 -352 49 -358 24 -23 40 109 26 208 -5
36 -14 103 -19 150 -6 47 -22 155 -35 240 -32 200 -102 688 -116 810 -20 175
-136 950 -164 1090 -8 41 -21 127 -30 190 -10 63 -32 196 -51 295 -47 251
-102 553 -120 662 -9 51 -24 121 -34 155 -20 68 -36 146 -28 138 3 -3 26 -67
50 -142 51 -153 109 -404 162 -698 20 -107 40 -211 45 -230 5 -19 16 -82 25
-140 8 -58 28 -172 44 -255 17 -82 35 -193 41 -245 7 -52 25 -174 40 -270 16
-96 36 -233 45 -305 9 -71 23 -175 31 -230 8 -55 21 -158 29 -230 8 -71 24
-197 35 -280 11 -82 25 -193 31 -245 5 -52 11 -104 13 -115 2 -11 13 -105 25
-210 30 -258 33 -276 53 -289 35 -22 36 -31 -18 419 -8 72 -33 238 -54 370
-21 132 -41 269 -45 305 -14 139 -36 310 -55 420 -11 63 -27 178 -35 255 -9
77 -25 185 -36 240 -10 55 -26 154 -35 220 -8 66 -26 174 -39 240 -14 66 -32
165 -40 220 -26 170 -159 837 -239 1199 -20 88 -34 161 -32 163 6 6 156 -537
156 -564 0 -8 15 -78 34 -156 19 -78 39 -176 46 -217 7 -41 23 -128 37 -194
47 -228 127 -698 178 -1051 14 -93 34 -226 44 -295 23 -147 56 -394 71 -535 6
-55 27 -210 46 -345 28 -202 74 -615 74 -666 0 -13 27 -44 38 -44 33 1 55 74
93 300 22 138 67 341 134 615 24 99 62 254 85 345 52 213 110 402 143 465 14
28 26 44 27 36 0 -17 -40 -168 -87 -321 -52 -174 -234 -904 -293 -1173 -51
-238 -58 -312 -31 -312 18 0 21 11 66 225 102 488 239 1049 323 1319 36 117
68 208 70 202 5 -15 -13 -89 -60 -246 -48 -161 -242 -942 -299 -1205 -23 -107
-42 -220 -43 -250 -1 -49 1 -55 21 -58 18 -3 24 4 33 40 6 24 13 50 15 58 3 8
14 67 25 130 11 63 39 192 61 285 22 94 58 249 81 345 104 448 261 971 321
1072 42 70 108 110 185 116 84 5 114 -15 193 -133 37 -54 76 -107 88 -116 46
-37 238 -55 316 -29 22 7 103 44 179 82 171 85 248 111 396 133 184 27 205 41
288 198 49 92 66 146 88 287 9 58 20 111 24 119 9 16 17 18 115 27 61 6 78 3
132 -20 96 -40 109 -37 208 49 79 69 184 140 228 154 35 12 48 32 62 92 8 33
-31 81 -83 102 -53 21 -374 87 -425 87 -23 0 -64 -7 -92 -16 -27 -8 -78 -20
-113 -25 -65 -9 -141 -43 -202 -88 -74 -55 -64 -60 46 -22 122 42 318 91 362
91 21 0 62 -7 92 -15 30 -9 94 -22 142 -30 48 -9 98 -19 110 -24 20 -8 16 -10
-32 -25 -30 -9 -107 -21 -170 -26 -63 -6 -153 -15 -200 -21 -47 -6 -160 -11
-252 -11 -93 0 -168 -4 -168 -8 0 -19 -106 -33 -207 -26 -97 6 -104 5 -101
-11 2 -10 14 -23 28 -30 29 -15 167 -17 225 -3 22 5 78 12 125 15 417 30 615
52 807 91 29 6 33 4 33 -15 0 -14 -13 -27 -42 -42 -22 -11 -97 -63 -165 -115
l-124 -93 -82 51 c-45 28 -103 65 -130 81 l-47 30 -93 -11 c-92 -12 -145 -27
-332 -96 -91 -34 -160 -56 -433 -137 -116 -34 -172 -44 -172 -31 0 17 111 101
170 128 107 50 120 57 120 70 0 17 -32 26 -56 17 -82 -31 -221 -127 -289 -200
-34 -36 -54 -47 -132 -72 -66 -20 -93 -25 -93 -16 0 12 76 90 138 141 17 15
32 34 32 42 0 14 -1 14 -12 0 -7 -8 -41 -32 -75 -52 -35 -21 -89 -63 -121 -95
-55 -56 -118 -98 -129 -87 -17 16 212 214 286 247 36 16 40 29 9 29 -47 0
-218 -126 -391 -288 -32 -30 -61 -52 -64 -48 -12 11 54 92 187 227 120 122
143 142 210 172 83 38 154 62 305 102 55 15 120 35 145 45 69 27 130 33 172
16 23 -10 82 -17 167 -19 112 -4 131 -2 131 10 0 23 47 149 66 178 28 43 52
50 199 55 166 6 183 14 235 111 18 34 48 79 66 99 35 38 52 72 120 240 37 92
43 99 171 231 72 74 134 146 137 160 6 22 18 326 17 414 0 22 -2 152 -4 289
-5 228 -7 251 -24 264 -15 11 -43 12 -153 6 -179 -11 -259 -9 -358 10 -111 21
-136 14 -202 -54 -103 -105 -203 -191 -252 -216 -27 -13 -92 -36 -146 -50 -53
-14 -106 -32 -117 -39 -11 -7 -69 -56 -130 -109 -60 -53 -120 -99 -132 -102
-26 -7 -186 37 -241 65 -48 25 -79 59 -149 162 -74 107 -116 131 -227 131 -41
0 -85 -6 -98 -13 -48 -25 -242 -217 -289 -284 -27 -38 -60 -83 -74 -100 l-26
-30 6 30 c18 83 61 217 87 270 35 71 248 289 313 322 31 16 70 22 166 27 l126
7 55 -45 c142 -115 247 -163 335 -151 137 19 229 62 397 184 178 129 215 160
274 231 30 36 81 97 115 135 70 82 89 120 117 241 24 100 46 143 120 229 29
33 60 78 70 100 22 49 28 181 20 415 -3 70 1 112 15 160 10 36 18 95 19 132
l1 67 -97 99 c-145 147 -141 135 -144 479 -2 310 3 280 -68 382 -30 42 -82
232 -92 336 -6 63 -31 97 -78 109 -37 10 -88 -4 -265 -72 -29 -12 -96 -31
-149 -43 -78 -18 -109 -31 -171 -73 -92 -62 -178 -88 -366 -112 l-137 -18 -42
-50 c-43 -53 -116 -127 -207 -211 -40 -37 -67 -75 -104 -149 -57 -113 -112
-178 -199 -240 -111 -79 -109 -79 -200 -41 -51 21 -84 41 -92 56 -17 31 -53
150 -99 324 -59 227 -86 264 -189 251 -71 -8 -262 -106 -377 -192 -36 -28 -77
-47 -123 -60 l-69 -18 -59 65 c-32 35 -73 89 -91 119 -27 46 -46 63 -112 102
-120 70 -124 75 -162 157 -90 201 -145 285 -205 314 -20 10 -78 22 -129 28
-100 10 -126 21 -233 103 -132 99 -209 131 -263 109z m155 -115 c42 -28 79
-55 82 -59 3 -5 2 -56 -3 -115 -4 -59 -5 -119 -2 -133 l7 -26 19 25 c15 21 19
42 19 123 l0 98 43 -25 c23 -13 61 -29 83 -35 l41 -11 -3 -53 c-2 -28 -10 -92
-19 -142 -8 -49 -15 -93 -15 -97 0 -4 -13 -22 -29 -40 -30 -34 -91 -131 -134
-212 l-26 -48 -10 38 c-6 22 -20 91 -31 154 -11 63 -31 169 -45 235 -13 66
-31 163 -40 216 -8 53 -18 111 -21 128 -4 17 -3 31 0 31 4 0 42 -23 84 -52z
m-119 -35 c7 -43 18 -130 26 -193 8 -63 23 -167 35 -230 31 -171 42 -251 35
-258 -14 -14 -42 43 -54 111 -7 40 -26 130 -42 202 -27 119 -41 157 -54 144
-5 -6 24 -127 72 -297 14 -51 22 -96 18 -100 -13 -13 -45 41 -66 112 -58 200
-90 295 -104 306 -21 17 -20 13 24 -124 41 -130 60 -226 43 -226 -23 0 -90 93
-116 162 -16 40 -40 94 -54 120 l-25 48 26 20 c27 22 159 192 193 249 10 17
21 31 25 31 3 0 11 -35 18 -77z m536 -137 c47 -20 121 -123 196 -274 70 -142
70 -122 -2 -320 -27 -73 -50 -143 -51 -157 l-2 -23 -36 31 c-19 18 -46 39 -60
48 l-25 16 28 137 c16 75 25 140 22 146 -3 5 -14 10 -23 10 -14 0 -22 -27 -46
-148 -31 -159 -45 -197 -74 -204 -11 -3 -32 -27 -47 -54 -62 -110 -140 -233
-148 -234 -11 0 -25 40 -32 91 -3 24 -13 93 -22 152 l-16 108 61 122 c79 161
111 205 154 209 36 3 51 34 26 52 -13 10 -13 27 -1 131 8 66 12 132 10 148 -3
24 0 27 25 27 16 0 44 -6 63 -14z m-792 -176 c14 -36 28 -83 32 -105 7 -39 6
-39 -12 -22 -36 32 -33 17 5 -24 51 -56 82 -85 192 -182 52 -46 112 -105 132
-132 35 -47 42 -67 53 -150 27 -210 55 -403 60 -417 16 -41 -46 -3 -76 46 -13
21 -19 25 -19 14 0 -10 -4 -18 -8 -18 -10 0 -80 74 -151 158 -30 34 -73 76
-96 93 -53 38 -138 191 -195 348 -33 93 -60 134 -77 117 -7 -7 54 -191 98
-299 41 -99 46 -133 21 -146 -11 -6 -29 -8 -40 -3 -20 7 -197 210 -247 281
-20 30 -26 47 -21 66 4 14 10 25 15 25 4 0 25 -25 45 -55 41 -62 163 -195 210
-228 l30 -21 -15 22 c-9 12 -54 61 -100 109 -92 95 -144 165 -154 205 -6 24 0
30 88 82 96 56 143 100 151 139 3 12 7 49 9 81 3 42 9 63 22 72 10 8 19 13 21
11 1 -1 13 -31 27 -67z m4251 38 c7 -13 28 -86 46 -163 18 -77 41 -162 51
-190 11 -27 19 -53 19 -56 0 -4 -25 -19 -56 -35 -31 -16 -98 -67 -149 -115
-51 -47 -124 -107 -161 -134 -38 -27 -93 -68 -122 -92 -56 -45 -72 -52 -72
-31 0 17 209 218 238 229 29 11 32 59 3 59 -13 0 -21 -9 -26 -30 -4 -16 -10
-30 -15 -30 -22 0 -184 -149 -229 -211 -49 -66 -71 -84 -71 -56 0 7 14 35 31
63 18 27 69 111 115 186 45 75 114 183 152 240 39 57 87 135 107 173 21 39 45
81 55 95 9 14 27 44 39 67 19 38 19 42 4 37 -15 -5 -16 -4 -3 5 22 15 28 14
44 -11z m-74 -3 c0 -9 -141 -226 -185 -285 -22 -30 -52 -73 -66 -95 -15 -22
-69 -105 -121 -185 -52 -80 -99 -156 -103 -169 -15 -48 -29 9 -29 114 0 107
19 177 99 367 19 45 38 97 41 115 6 30 11 34 63 48 114 31 197 58 231 76 34
17 70 25 70 14z m-442 -232 c-25 -59 -55 -134 -68 -166 -27 -70 -43 -87 -78
-87 l-27 0 25 -13 25 -13 1 -164 c2 -155 0 -169 -24 -230 -14 -36 -35 -78 -46
-93 -18 -25 -21 -26 -28 -10 -3 10 -7 30 -7 46 -1 15 -7 27 -14 27 -11 0 -13
-17 -9 -78 3 -63 1 -85 -14 -113 l-19 -34 -10 79 c-6 46 -15 81 -22 83 -10 4
-11 -20 -7 -104 5 -84 3 -116 -8 -143 l-15 -35 -11 40 c-7 22 -12 50 -12 61 0
32 -12 84 -19 84 -3 0 -5 -53 -3 -117 2 -108 0 -122 -22 -168 l-24 -50 -1 34
c-2 67 -25 211 -34 211 -6 0 -7 -57 -3 -148 7 -150 -1 -208 -26 -200 -20 7
-26 60 -34 263 -7 214 -4 235 56 360 21 44 56 120 79 168 29 64 57 105 101
151 33 34 60 66 60 69 0 4 -10 7 -22 7 -13 0 -41 -18 -65 -42 -43 -42 -43 -42
-43 -16 0 15 -5 30 -10 33 -15 9 -32 -42 -35 -103 -2 -35 -11 -65 -27 -90 -13
-20 -48 -85 -77 -144 -30 -60 -57 -108 -61 -108 -24 0 -85 194 -99 310 -4 40
-10 56 -23 58 -22 4 -25 -24 -15 -113 12 -94 52 -226 89 -292 30 -53 30 -54
34 -246 3 -105 9 -225 14 -265 13 -99 13 -125 -2 -120 -15 5 -36 126 -37 206
-1 36 -5 52 -14 52 -15 0 -13 -161 4 -243 12 -62 12 -154 0 -141 -19 19 -49
144 -62 252 -8 64 -17 111 -23 109 -18 -6 -2 -173 30 -321 8 -39 17 -83 21
-98 7 -34 -5 -84 -17 -72 -5 5 -25 70 -44 144 -44 170 -64 231 -65 204 -1 -23
28 -178 60 -312 16 -72 17 -87 6 -109 -13 -24 -15 -21 -42 78 -50 189 -59 216
-63 189 -1 -14 9 -70 23 -125 28 -110 44 -268 28 -278 -6 -4 -25 43 -46 116
-31 107 -36 116 -36 77 0 -25 6 -74 14 -110 16 -73 20 -210 6 -210 -9 0 -18
33 -48 183 -9 48 -22 87 -28 87 -8 0 -7 -25 2 -87 7 -49 16 -139 20 -202 5
-93 3 -113 -8 -109 -48 16 -112 731 -79 891 9 46 81 313 96 360 5 12 1 17 -14
17 -27 0 -37 -14 -70 -105 l-29 -80 -8 45 c-13 76 -55 214 -72 233 -35 38 -31
-5 11 -129 49 -144 61 -202 46 -224 -13 -18 -24 -6 -77 87 -38 64 -83 99 -83
65 0 -20 37 -81 98 -162 41 -54 42 -56 42 -136 0 -138 -12 -264 -24 -257 -6 4
-5 -1 3 -10 7 -10 11 -27 7 -39 -3 -13 1 -61 8 -108 22 -130 29 -210 19 -210
-5 0 -33 71 -63 158 -29 86 -57 161 -62 166 -4 6 -8 57 -8 115 0 123 -8 142
-70 188 -25 17 -57 42 -73 55 l-27 23 9 138 c8 134 9 139 38 170 16 18 40 47
52 64 12 18 66 62 120 98 123 80 173 136 241 265 65 124 76 138 158 205 56 47
124 124 151 173 6 11 44 21 122 33 63 9 132 20 153 24 36 7 39 6 31 -11 -22
-51 -75 -208 -75 -222 0 -21 86 158 99 206 10 35 16 40 63 55 29 9 87 39 128
66 41 28 76 48 78 46 3 -2 -16 -53 -40 -112z m-2649 -161 c-27 -76 -126 -282
-135 -282 -13 0 29 128 95 290 10 25 21 57 25 73 6 23 9 26 26 17 19 -10 18
-13 -11 -98z m83 20 c-2 -40 -45 -166 -64 -189 -6 -7 -23 -39 -38 -70 -15 -32
-42 -71 -59 -87 -30 -29 -31 -29 -31 -8 0 12 22 66 48 120 27 53 66 139 87
190 40 97 62 114 57 44z m69 -8 c21 -26 -5 -104 -78 -239 -26 -47 -53 -113
-53 -128 0 -24 19 3 45 64 28 68 48 81 26 17 -6 -17 -9 -33 -7 -36 3 -2 12 18
20 45 26 82 74 215 80 221 3 3 9 -9 12 -26 4 -18 10 -29 15 -26 17 10 8 -16
-35 -103 -42 -85 -82 -190 -74 -198 5 -6 116 226 123 258 l6 29 43 -39 c28
-24 44 -47 45 -62 1 -14 -23 -77 -53 -140 -73 -156 -77 -166 -63 -180 6 -6 11
-36 11 -66 0 -30 1 -55 2 -55 35 0 67 54 94 160 33 122 69 212 96 237 13 12
44 25 69 29 35 5 67 22 133 71 81 61 119 83 143 83 6 0 8 -4 5 -9 -13 -21 -63
-231 -55 -231 12 0 43 64 68 138 17 50 19 67 10 84 -9 18 -7 24 17 44 35 27
122 69 129 62 3 -3 -1 -48 -8 -101 -16 -103 -13 -96 -156 -342 -42 -71 -103
-187 -136 -256 -56 -117 -137 -240 -120 -180 5 15 3 21 -3 17 -6 -3 -15 -28
-21 -55 -6 -27 -23 -82 -40 -122 -21 -55 -34 -74 -47 -74 -51 0 -58 261 -11
408 18 56 21 77 12 77 -30 0 -57 -39 -83 -120 -32 -104 -33 -218 -2 -355 23
-98 25 -112 36 -196 5 -47 2 -68 -19 -125 -14 -38 -32 -91 -39 -118 -12 -44
-20 -53 -63 -79 -27 -16 -68 -45 -91 -65 -104 -91 -214 -134 -214 -83 0 11 11
66 25 123 32 134 33 158 1 158 -21 0 -25 -6 -30 -47 -10 -66 -56 -262 -70
-293 -15 -33 -107 -160 -117 -160 -4 0 -10 8 -13 18 -7 23 -60 282 -75 363
l-13 67 40 93 c22 52 65 149 96 217 31 68 68 165 82 215 15 51 33 105 42 122
8 16 69 82 135 146 113 109 132 139 90 139 -8 0 -60 -41 -114 -91 -55 -51
-102 -89 -106 -86 -8 9 -17 320 -10 348 4 13 22 34 41 46 44 28 114 160 158
293 40 124 42 127 69 94z m849 -4 c9 -17 4 -33 -30 -91 -23 -39 -44 -68 -46
-66 -3 3 3 29 13 60 14 40 16 60 9 76 -17 38 34 58 54 21z m2333 -72 c11 -14
17 -33 14 -41 -3 -8 -32 -29 -64 -46 -69 -37 -121 -77 -111 -86 3 -3 42 16 87
44 44 27 82 47 85 43 2 -4 1 -22 -1 -40 -4 -22 -14 -37 -32 -47 -15 -7 -49
-32 -76 -54 -27 -23 -53 -41 -57 -41 -5 0 -8 13 -8 28 0 38 -17 52 -62 52 -27
0 -38 4 -38 15 0 8 43 52 96 97 53 46 102 89 108 95 16 18 36 12 59 -19z
m-2285 -10 c26 -54 24 -83 -8 -119 -29 -31 -85 -138 -77 -146 2 -1 14 19 27
47 22 46 75 109 84 99 2 -2 7 -20 11 -39 6 -34 3 -39 -69 -115 -74 -77 -91
-105 -62 -105 7 0 37 36 65 79 29 44 59 82 66 85 9 3 20 -16 35 -67 12 -39 35
-97 51 -129 16 -32 29 -69 29 -82 0 -14 -19 -67 -42 -118 -38 -84 -42 -101
-44 -181 -2 -83 -4 -91 -31 -120 -16 -18 -47 -54 -68 -81 -38 -46 -39 -52 -45
-145 -5 -73 -16 -123 -45 -209 l-38 -113 -88 -82 c-51 -49 -101 -107 -122
-142 -38 -66 -138 -167 -145 -147 -2 6 2 29 9 49 16 50 109 237 120 241 12 5
-1 32 -16 32 -7 0 -45 -76 -85 -169 -39 -93 -79 -177 -88 -187 -10 -11 -34
-43 -56 -71 -21 -29 -39 -53 -42 -53 -15 0 45 334 77 425 40 118 35 131 -7 17
-19 -52 -47 -164 -63 -250 -16 -87 -34 -168 -40 -182 -9 -23 -10 -23 -10 13
-1 64 29 287 50 370 31 122 44 142 118 184 148 82 292 153 309 153 19 0 42 18
42 33 0 26 -102 -6 -244 -76 -89 -45 -170 -78 -198 -82 l-47 -7 20 53 c53 139
110 190 352 319 l118 62 59 90 c33 50 60 96 60 104 0 29 -30 12 -70 -38 -60
-76 -133 -134 -257 -205 -59 -35 -123 -72 -140 -84 l-33 -21 0 24 c0 62 57
188 174 381 43 71 93 162 112 204 19 41 47 94 62 116 15 23 68 124 117 225 49
100 92 182 95 182 4 0 12 -10 18 -22z m-2329 -224 c83 -86 120 -134 104 -134
-14 0 -238 231 -261 269 -11 18 -17 41 -15 52 4 16 14 8 49 -42 24 -34 79 -99
123 -145z m-88 -1 c99 -98 182 -193 128 -148 -155 131 -264 245 -233 245 3 0
51 -44 105 -97z m1136 55 c8 -6 24 -30 35 -51 18 -37 20 -60 21 -316 2 -243 0
-283 -16 -336 l-19 -60 -13 39 c-15 42 -31 63 -41 53 -4 -3 3 -23 16 -44 30
-50 21 -102 -36 -220 -24 -51 -44 -95 -44 -99 0 -15 -56 -94 -67 -94 -13 0
-23 30 -47 135 -45 202 -76 364 -92 486 l-17 135 50 95 c139 264 171 306 226
295 16 -3 36 -11 44 -18z m3577 -40 c5 -35 4 -37 -40 -63 -26 -15 -62 -38 -81
-50 -18 -13 -48 -27 -66 -31 -33 -7 -47 -19 -47 -42 0 -20 34 -7 135 54 50 30
94 54 98 54 20 0 5 -50 -20 -68 -48 -33 -200 -112 -216 -112 -16 0 -69 -117
-107 -235 -12 -38 -27 -75 -34 -81 -6 -6 -49 -19 -96 -29 -47 -10 -91 -20 -97
-22 -30 -12 -8 42 58 142 39 59 67 111 62 116 -18 18 -54 -5 -83 -55 -57 -96
-115 -186 -130 -200 -8 -8 -49 -28 -90 -46 -41 -17 -105 -49 -142 -70 l-67
-38 25 56 c14 31 43 86 65 121 22 35 38 68 36 74 -5 15 -59 -58 -112 -153 -50
-90 -90 -140 -112 -140 -7 0 -13 7 -13 15 0 22 239 436 273 472 17 18 69 54
115 80 115 66 232 141 262 168 46 43 103 75 130 75 15 0 44 -13 65 -30 21 -16
40 -30 43 -30 9 0 126 69 152 89 14 11 25 19 26 18 1 -1 5 -18 8 -39z m-4728
-84 c55 -48 122 -103 151 -122 29 -19 55 -42 58 -52 16 -50 74 -293 81 -335
l7 -49 -39 31 c-21 16 -75 52 -119 80 -44 27 -102 66 -128 86 -50 38 -77 47
-77 24 0 -21 182 -154 295 -217 97 -54 195 -161 195 -213 0 -21 -17 -21 -122
-1 -34 6 -38 4 -38 -13 0 -39 19 -45 212 -69 43 -5 57 -14 140 -90 61 -56 102
-104 120 -137 14 -29 56 -88 92 -132 124 -151 148 -184 143 -197 -7 -17 -199
179 -252 256 -21 31 -40 54 -43 52 -9 -10 47 -90 168 -241 158 -198 176 -225
150 -225 -17 0 -108 89 -173 170 -89 112 -145 171 -151 162 -2 -4 25 -44 60
-87 36 -44 84 -105 106 -135 23 -30 64 -80 91 -110 27 -30 56 -68 64 -84 14
-26 9 -24 -43 20 -71 60 -128 119 -157 161 -12 17 -38 41 -58 52 -20 12 -42
28 -49 36 -15 18 -35 20 -24 3 4 -7 3 -8 -5 -4 -6 4 -9 11 -6 16 3 5 -4 14
-15 20 -11 6 -49 51 -85 100 -72 97 -116 140 -146 140 -30 0 -23 -23 22 -65
22 -22 63 -70 90 -106 53 -72 98 -111 155 -135 20 -8 34 -17 32 -20 -7 -7
-157 15 -217 32 -54 15 -81 13 -81 -6 0 -13 21 -21 120 -50 150 -43 148 -42
329 -270 95 -121 281 -395 281 -415 0 -15 -34 16 -72 67 -71 94 -334 419 -389
481 -46 51 -79 72 -79 49 0 -5 24 -35 53 -68 46 -51 175 -217 322 -414 50 -67
185 -275 185 -285 0 -16 -76 77 -285 346 -44 57 -118 144 -165 194 -47 50
-106 115 -131 145 -26 30 -50 52 -54 48 -11 -11 31 -70 114 -163 145 -161 412
-513 462 -608 22 -43 39 -80 37 -82 -1 -2 -46 56 -98 128 -118 164 -204 266
-388 465 -79 87 -192 218 -250 292 l-106 135 -18 130 c-10 72 -20 184 -22 250
l-3 120 -40 42 c-34 35 -60 83 -79 151 -4 13 -50 17 -58 4 -7 -11 32 -94 78
-165 34 -54 37 -63 41 -150 2 -50 7 -127 11 -169 4 -51 3 -78 -3 -78 -6 0 -26
17 -45 38 -74 81 -117 148 -133 207 -9 33 -33 111 -52 174 -34 110 -34 115
-22 177 7 35 9 67 5 71 -4 5 -18 -4 -32 -20 l-23 -27 -28 22 c-15 12 -66 61
-113 108 l-85 85 65 6 c36 4 73 10 82 14 16 6 47 83 46 115 -1 55 28 300 35
300 6 0 53 -43 107 -95 53 -52 99 -92 103 -88 11 10 -17 46 -80 105 -114 104
-143 136 -143 152 0 9 4 16 9 16 5 0 53 -39 107 -86z m366 -41 c40 -24 168
-180 207 -253 18 -33 51 -83 74 -112 136 -171 191 -258 174 -274 -8 -9 -98 92
-210 238 -71 92 -87 108 -87 85 0 -22 55 -101 193 -274 100 -126 129 -171 133
-200 l6 -38 -29 31 c-28 31 -140 167 -265 321 -39 48 -70 78 -74 72 -7 -12 -6
-14 213 -303 155 -203 203 -279 184 -290 -9 -6 -114 115 -212 244 -35 47 -93
115 -129 151 -36 37 -70 75 -77 85 -6 11 -12 14 -12 8 -1 -15 57 -100 128
-189 31 -38 71 -90 90 -115 18 -25 49 -62 69 -82 20 -21 33 -40 30 -43 -9 -9
-130 89 -229 186 -84 82 -102 106 -142 189 -62 129 -99 248 -127 404 -15 91
-13 133 10 156 25 25 43 25 82 3z m4341 -110 c-15 -13 -33 -23 -39 -23 -6 0
-46 -22 -88 -50 -42 -27 -79 -50 -81 -50 -3 0 -5 9 -5 20 0 25 48 63 152 120
77 43 83 44 86 26 3 -13 -6 -29 -25 -43z m22 -55 c-10 -31 -20 -40 -95 -73
-36 -17 -86 -42 -111 -57 -25 -16 -50 -28 -54 -28 -29 0 132 118 182 134 11 4
28 15 38 26 25 28 48 26 40 -2z m-2002 -20 c32 -12 32 -12 12 -68 -8 -23 -15
-52 -15 -64 0 -17 -6 -22 -27 -21 -28 0 -28 -1 -29 -65 0 -36 -1 -96 -2 -134
l-2 -70 -30 29 c-17 16 -40 48 -51 73 -26 53 -23 89 19 194 17 42 34 93 38
113 6 33 9 36 33 30 14 -3 38 -11 54 -17z m-3314 -84 c46 -13 92 -24 103 -24
35 0 56 -19 103 -92 26 -39 96 -122 156 -183 l109 -111 29 -129 c47 -207 53
-209 -232 75 -390 390 -477 474 -483 468 -8 -8 21 -61 42 -79 9 -7 85 -88 168
-179 83 -90 168 -180 189 -198 20 -19 37 -39 37 -44 0 -15 -61 -3 -186 37 -87
28 -118 44 -154 76 -25 22 -64 51 -87 65 -41 25 -41 25 -48 100 -12 126 -3
189 31 225 28 29 32 30 84 24 30 -4 93 -18 139 -31z m1350 -139 c15 -22 30
-50 34 -63 5 -20 3 -21 -11 -10 -22 18 -169 203 -183 231 -16 31 127 -109 160
-158z m3971 161 c0 -15 -132 -91 -177 -102 -13 -4 -29 -17 -35 -30 -12 -27
-56 -47 -90 -42 -21 4 -19 6 16 22 41 18 68 40 60 48 -2 3 40 26 95 51 55 25
102 51 106 57 9 15 25 12 25 -4z m25 -76 c4 -6 -26 -25 -67 -44 -139 -65 -156
-58 -33 13 74 42 90 47 100 31z m50 -70 c-2 -4 -34 -22 -71 -39 -37 -17 -86
-45 -110 -61 -23 -17 -46 -30 -49 -30 -4 0 -34 -16 -66 -36 -32 -19 -64 -32
-69 -29 -18 11 7 32 111 91 54 30 101 59 105 65 3 6 34 24 67 40 45 21 64 26
74 18 7 -6 11 -15 8 -19z m-197 -35 c-2 -3 -49 -27 -103 -55 -95 -49 -124 -55
-106 -23 12 23 140 81 180 82 19 1 32 -1 29 -4z m246 -4 c7 -11 -71 -67 -164
-117 -171 -92 -230 -131 -329 -217 -112 -97 -115 -97 -38 1 37 47 77 81 151
129 56 36 117 76 136 88 95 62 207 125 222 125 9 0 19 -4 22 -9z m71 -71 c4
-6 -22 -23 -59 -40 -36 -17 -91 -46 -121 -65 -31 -20 -90 -53 -133 -75 -50
-25 -96 -58 -132 -95 -30 -31 -73 -66 -95 -77 -22 -11 -63 -36 -91 -54 -28
-19 -56 -34 -63 -34 -17 0 29 59 52 66 18 6 193 133 254 185 18 15 65 46 105
70 40 23 107 61 148 85 72 43 122 55 135 34z m-605 -5 c0 -12 -83 -165 -125
-230 -25 -38 -48 -77 -52 -85 -3 -8 -35 -59 -70 -112 -44 -68 -70 -98 -83 -98
-17 0 -18 4 -10 25 5 14 16 35 23 47 8 13 54 91 102 173 48 83 99 160 113 172
l26 22 -28 10 c-15 6 -34 11 -42 11 -8 0 -18 10 -23 23 -8 21 -5 23 48 33 61
13 121 17 121 9z m70 -45 c0 -15 -90 -175 -116 -205 -13 -16 -24 -32 -24 -37
0 -4 -7 -8 -16 -8 -8 0 -12 -4 -9 -10 3 -5 2 -10 -4 -10 -5 0 -13 -10 -17 -22
-7 -25 -55 -97 -80 -122 -21 -21 -35 -20 -27 2 21 53 179 292 194 292 5 0 9 7
9 15 0 8 3 15 8 15 4 0 20 23 35 50 26 46 47 64 47 40z m570 -35 c-8 -8 -85
-49 -170 -91 -85 -42 -174 -90 -198 -105 -46 -31 -57 -34 -67 -19 -3 5 18 21
47 36 29 14 78 41 108 60 125 76 275 152 285 143 6 -6 4 -14 -5 -24z m-876 16
c10 -15 -287 -514 -332 -560 -78 -78 -4 79 190 404 93 155 123 188 142 156z
m-1532 -23 c14 -21 12 -24 -32 -59 -26 -20 -62 -56 -81 -80 -31 -40 -25 -37
54 30 l88 74 22 -23 c17 -17 19 -24 8 -27 -7 -3 -52 -38 -100 -78 -63 -53 -89
-70 -98 -63 -23 19 -14 64 22 114 19 27 47 68 62 91 16 23 31 43 34 43 4 0 13
-10 21 -22z m1628 -14 c2 -3 0 -11 -5 -19 -6 -8 -54 -83 -107 -167 -142 -225
-187 -288 -203 -288 -8 0 -15 4 -15 10 0 13 115 220 172 310 26 41 60 96 76
123 23 41 30 47 52 41 14 -3 27 -8 30 -10z m-220 -20 c-6 -14 -22 -47 -37 -72
-92 -164 -119 -210 -138 -237 -12 -16 -45 -73 -74 -125 -63 -117 -92 -153
-114 -149 -15 4 -12 13 19 73 20 38 58 106 83 150 26 45 52 90 58 101 7 11 28
47 47 81 20 34 48 85 63 114 19 35 40 59 63 71 19 11 36 19 37 19 1 0 -2 -12
-7 -26z m-4712 -24 c58 -39 89 -67 81 -74 -2 -2 -24 3 -49 10 -50 15 -120 67
-120 90 0 23 25 16 88 -26z m5172 26 c0 -8 -7 -16 -15 -20 -13 -4 -14 -2 -5
14 13 23 20 26 20 6z m538 -46 c-7 -11 -55 -42 -106 -68 -51 -26 -105 -57
-120 -70 l-27 -23 28 6 c16 3 65 24 109 45 44 22 84 40 88 40 5 0 4 -16 -1
-35 -6 -22 -6 -63 1 -117 5 -45 7 -85 2 -89 -4 -4 -52 -23 -107 -42 -55 -19
-122 -44 -150 -55 -27 -12 -62 -24 -77 -27 -36 -7 -35 -20 6 -65 18 -20 36
-43 38 -51 4 -12 10 -11 34 2 27 16 112 43 102 34 -14 -15 -131 -85 -173 -104
-79 -37 -145 -83 -145 -101 0 -10 7 -23 15 -30 13 -11 15 -9 15 13 0 13 6 29
13 34 39 31 366 162 405 163 34 0 0 -22 -125 -83 -147 -72 -249 -129 -273
-154 -9 -9 5 -5 35 10 159 78 343 157 366 157 6 0 6 -7 0 -18 -6 -11 -85 -56
-176 -101 -92 -46 -164 -85 -161 -88 7 -8 129 33 189 64 27 13 51 23 53 20 2
-2 -8 -20 -23 -40 -33 -43 -68 -55 -193 -67 -47 -5 -98 -13 -115 -19 -16 -6
-77 -20 -135 -30 -58 -11 -113 -22 -122 -26 -25 -10 -34 20 -15 49 19 29 204
190 268 233 25 17 51 38 58 47 26 31 -32 18 -97 -21 -99 -61 -200 -150 -258
-229 -39 -52 -63 -75 -82 -79 -15 -3 -80 -19 -144 -35 -140 -36 -138 -35 -138
-10 0 46 67 155 128 207 79 69 115 89 191 107 73 17 88 27 67 46 -13 10 -29
10 -81 0 -36 -7 -65 -16 -65 -21 0 -5 -15 -16 -32 -25 -18 -9 -55 -35 -83 -57
l-50 -41 38 46 c39 49 46 72 23 81 -10 4 -23 -7 -37 -31 -12 -20 -32 -48 -44
-62 -13 -14 -60 -80 -105 -147 -83 -125 -139 -193 -158 -193 -6 0 10 29 36 64
26 36 69 104 97 152 27 49 60 100 72 115 27 32 30 52 7 47 -22 -4 -38 -28
-130 -198 -49 -89 -95 -161 -121 -186 -43 -42 -98 -72 -110 -60 -4 4 11 41 32
84 22 42 41 80 43 85 2 4 -1 7 -6 7 -6 0 -25 -26 -43 -57 -42 -76 -118 -183
-128 -183 -22 0 -19 37 7 84 58 104 152 254 167 266 19 16 19 30 1 30 -8 0
-24 -15 -35 -32 -12 -18 -43 -66 -69 -105 -26 -40 -82 -129 -125 -197 -74
-117 -107 -154 -107 -121 0 17 86 183 141 272 22 34 39 65 39 69 0 3 16 30 36
60 41 61 65 121 57 141 -7 19 -4 23 -92 -133 -122 -218 -257 -450 -277 -478
-11 -14 -25 -26 -31 -26 -18 0 -16 9 6 28 11 10 29 46 41 82 21 62 98 214 145
291 13 19 39 66 58 105 42 84 83 125 179 182 90 53 350 180 386 188 15 4 53
20 85 36 157 78 401 124 660 123 103 -1 117 1 117 16 0 21 -16 27 -98 39 -39
5 -85 5 -116 0 -74 -14 -104 -18 -171 -25 l-60 -6 42 24 c48 29 185 90 262
118 30 10 60 24 67 30 25 20 259 138 277 138 15 1 15 -2 5 -19z m-1168 -97
c-31 -60 -84 -151 -117 -203 -33 -53 -75 -124 -93 -159 -37 -69 -132 -181
-138 -162 -2 6 11 37 29 68 17 32 50 92 71 133 56 107 110 201 134 236 11 16
36 58 55 93 32 62 36 65 116 100 0 1 -25 -47 -57 -106z m-4458 16 c43 -1 245
-55 325 -87 24 -10 112 -77 200 -152 l157 -135 -49 -3 c-28 -2 -111 -2 -185 0
-133 3 -136 4 -184 35 -26 18 -85 44 -129 59 -45 15 -99 35 -120 46 -33 16
-38 17 -43 3 -11 -28 3 -41 63 -60 104 -33 193 -81 193 -104 0 -13 -103 -39
-245 -61 -71 -11 -155 -27 -186 -35 -31 -8 -63 -15 -69 -15 -23 0 -3 111 43
236 24 65 47 132 51 147 5 23 11 27 27 22 l21 -7 -21 21 c-18 18 -30 61 -17
61 3 0 39 -16 82 -35 42 -19 78 -35 80 -35 13 0 1 32 -13 37 -10 3 -46 19 -80
35 -57 26 -63 32 -63 59 l0 29 60 -30 c37 -19 76 -30 102 -31z m3383 25 c58
-39 85 -65 85 -83 0 -10 -45 -40 -118 -80 -64 -35 -163 -93 -220 -128 -135
-85 -146 -78 -88 50 33 72 41 80 153 171 65 52 125 95 133 95 9 1 33 -11 55
-25z m964 -51 c-5 -15 -32 -63 -58 -107 -26 -45 -65 -112 -86 -151 -141 -260
-242 -387 -149 -187 25 53 59 131 77 172 56 135 115 228 174 273 46 34 55 34
42 0z m-894 -284 c-27 -149 -39 -181 -75 -214 -61 -55 -139 -208 -181 -356
-35 -119 -40 -127 -126 -196 -22 -17 -47 -47 -55 -65 -9 -18 -23 -49 -32 -69
-27 -58 -96 -75 -188 -45 -70 23 -108 27 -149 16 -40 -11 -93 -50 -109 -81
-22 -41 -30 -120 -19 -189 7 -38 9 -79 6 -93 -10 -36 -54 -75 -128 -112 -36
-19 -81 -46 -98 -61 -58 -49 -131 -154 -147 -213 -25 -94 -33 -103 -33 -43 -2
102 15 138 103 230 44 46 100 95 125 110 24 14 39 28 33 30 -24 8 -116 -55
-181 -123 l-67 -71 4 55 c7 85 94 233 195 332 58 58 77 83 77 104 l0 27 -39
-31 c-60 -48 -159 -157 -181 -202 -26 -50 -40 -43 -29 13 12 69 20 82 94 164
82 91 164 147 257 175 76 23 101 43 68 54 -28 9 -75 -2 -135 -33 -69 -34 -164
-100 -198 -135 -15 -16 -30 -27 -34 -24 -19 20 93 239 160 311 46 50 59 58
107 67 71 13 280 13 398 -1 104 -12 145 -6 140 19 -4 19 -41 28 -117 30 l-54
1 19 21 c19 22 19 22 -6 15 -14 -4 -34 -10 -44 -13 -24 -7 -295 -7 -302 -1
-13 14 18 47 110 120 140 112 137 111 451 158 99 15 156 29 195 48 73 35 51
38 -117 13 -195 -29 -331 -43 -343 -36 -29 18 93 146 185 192 28 14 88 51 134
82 47 31 143 90 215 131 156 90 149 97 111 -111z m-2002 34 c45 -34 112 -114
138 -165 25 -48 13 -48 -32 0 -55 57 -160 192 -151 192 5 0 25 -12 45 -27z
m2106 -133 c5 -25 6 -46 2 -48 -4 -1 18 -53 49 -115 60 -118 100 -248 100
-326 0 -24 -3 -41 -6 -38 -9 8 -49 107 -70 169 -8 26 -20 51 -26 54 -13 8 -12
6 31 -119 34 -100 48 -181 33 -191 -5 -3 -21 31 -37 82 -33 107 -65 182 -76
182 -12 0 -12 3 15 -81 55 -166 77 -279 57 -279 -19 0 -38 55 -81 228 -12 47
-30 56 -30 15 0 -30 25 -136 59 -247 19 -63 20 -116 2 -116 -4 0 -12 17 -18
38 -6 20 -27 75 -47 122 -29 70 -36 79 -36 53 0 -18 11 -68 25 -111 23 -74 44
-183 33 -172 -9 8 -108 249 -108 261 0 31 -63 263 -78 289 -15 24 -21 27 -32
17 -8 -6 -7 -3 2 8 8 11 24 36 33 55 10 19 37 58 60 85 77 91 90 121 105 235
l14 105 8 -55 c4 -30 12 -75 17 -100z m2049 118 c-2 -16 -20 -29 -73 -51 -75
-31 -195 -49 -195 -28 0 6 6 11 13 11 6 1 62 21 122 45 128 51 138 53 133 23z
m2 -48 c0 -16 -39 -50 -57 -50 -44 1 -44 17 -1 38 49 24 58 26 58 12z m-3163
-27 c-43 -135 -59 -207 -73 -332 -8 -80 -13 -160 -11 -178 6 -37 -6 -90 -27
-118 -21 -29 -29 -13 -17 31 5 22 12 107 15 189 9 231 58 425 108 425 6 0 8
-8 5 -17z m-1820 -94 c15 -14 89 -69 164 -122 137 -97 172 -127 150 -127 -16
0 -263 145 -328 192 -51 37 -73 46 -73 30 0 -12 71 -62 302 -213 181 -118 243
-169 205 -169 -8 0 -52 23 -98 52 -46 28 -131 79 -189 114 -58 34 -149 91
-203 126 -113 72 -123 77 -111 55 12 -21 146 -111 262 -176 49 -28 133 -83
187 -121 54 -39 116 -78 139 -87 22 -9 45 -20 51 -25 13 -11 -41 -10 -90 3
-22 6 -130 14 -240 19 -110 5 -212 12 -227 16 -21 5 -29 2 -34 -11 -10 -25 8
-31 111 -39 52 -3 116 -11 143 -16 28 -5 87 -12 133 -15 111 -8 224 -23 277
-37 36 -9 61 -30 154 -127 99 -103 267 -314 300 -374 13 -26 20 -30 -97 65
-85 69 -197 148 -210 148 -4 0 5 -10 21 -22 31 -24 52 -49 71 -85 21 -41 -28
-28 -86 22 -29 25 -62 45 -74 45 -12 0 -49 12 -82 26 -106 45 -248 95 -335
119 -51 14 -145 53 -237 100 -185 95 -211 98 -368 46 -55 -18 -106 -38 -113
-43 -20 -17 -24 -5 -27 92 -2 51 -6 94 -9 98 -17 16 1 35 59 61 36 17 68 37
71 45 3 9 -4 28 -16 43 -28 36 -109 93 -132 93 -10 0 -40 -13 -66 -30 -47 -29
-82 -38 -82 -22 0 4 23 17 51 29 28 13 48 27 44 33 -9 15 -62 12 -97 -6 -17
-9 -40 -13 -54 -10 -31 8 -117 91 -112 108 5 14 78 31 221 49 84 11 100 10
107 -2 7 -11 25 -6 97 28 48 23 95 44 103 47 8 3 88 4 177 3 159 -2 162 -2
190 -28z m141 -33 c39 -24 71 -56 56 -56 -5 1 -38 19 -74 40 -47 29 -59 40
-42 40 12 0 39 -11 60 -24z m1518 -21 c-3 -9 -15 -71 -26 -138 -12 -67 -27
-149 -35 -182 -8 -33 -33 -143 -56 -245 -23 -102 -50 -205 -60 -230 -10 -25
-25 -74 -34 -110 -30 -120 -36 -142 -41 -137 -17 17 92 507 156 700 17 49 29
91 27 93 -8 9 -121 -303 -161 -446 -37 -133 -76 -319 -76 -363 0 -22 -19 7
-24 37 -11 55 94 531 162 739 16 48 25 90 20 93 -4 3 -10 -1 -12 -8 -2 -7 -27
-87 -55 -178 -60 -195 -127 -433 -137 -486 -6 -34 -8 -36 -20 -19 -23 31 -16
100 27 278 22 92 39 173 37 179 -4 12 -61 -183 -80 -274 -7 -32 -15 -58 -18
-58 -3 0 -12 28 -19 63 -7 34 -22 99 -32 145 -28 121 -25 142 26 240 59 113
63 118 108 125 61 10 123 45 221 124 92 74 113 85 102 58z m-859 -188 c6 -4
25 -31 42 -60 16 -28 71 -97 121 -152 78 -86 130 -157 130 -180 0 -35 -217
228 -312 377 -17 26 -9 32 19 15z m-1303 -5 c6 -10 -82 -48 -131 -58 -52 -10
-40 14 20 41 53 24 102 32 111 17z m45 -64 c-39 -26 -144 -67 -151 -60 -12 12
9 28 78 56 36 15 63 21 68 15 5 -5 8 -10 5 -11z m3161 -130 c0 -13 -8 -18 -30
-18 -35 0 -35 0 -13 93 l17 72 12 -65 c7 -36 13 -73 14 -82z m620 128 c0 -8
-36 -75 -80 -149 -44 -73 -80 -139 -80 -146 0 -20 -31 -123 -36 -118 -11 11
23 123 68 222 71 157 128 242 128 191z m532 -68 c-18 -39 -33 -58 -45 -58 -12
0 -16 4 -11 13 12 21 78 107 80 104 1 -1 -10 -28 -24 -59z m916 -10 c-11 -40
-21 -74 -23 -76 -1 -1 -14 2 -29 8 -35 13 -79 13 -71 0 3 -5 21 -10 38 -10 68
0 74 -39 15 -106 -41 -47 -54 -45 -244 42 -166 75 -173 79 -158 94 17 17 221
67 304 75 41 4 98 15 125 25 28 10 53 18 57 19 3 0 -3 -32 -14 -71z m-526 -88
c39 -22 72 -40 74 -40 2 0 54 -24 116 -53 62 -30 130 -59 151 -66 42 -14 43
-17 18 -50 l-19 -24 -168 83 c-139 69 -197 102 -273 156 -8 6 9 34 20 34 7 0
43 -18 81 -40z m-124 -14 c32 -24 91 -62 132 -84 250 -131 310 -164 310 -171
0 -4 -9 -16 -20 -26 -20 -18 -22 -18 -51 -1 -17 10 -104 55 -194 100 -219 108
-198 72 25 -44 90 -47 165 -90 167 -96 2 -6 -7 -16 -19 -22 -25 -14 -30 -12
-249 106 -95 52 -96 52 -114 32 -10 -11 -16 -21 -14 -23 2 -2 31 -11 64 -21
33 -10 107 -43 164 -74 l105 -55 -34 -28 -33 -28 -136 71 c-158 82 -164 86
-158 110 5 16 -2 18 -64 18 -57 0 -80 5 -127 29 -31 16 -86 41 -122 56 -70 29
-105 54 -93 66 11 9 319 108 401 128 2 1 29 -19 60 -43z m-1430 -16 c44 -43
47 -49 61 -145 6 -33 17 -85 26 -115 17 -57 33 -210 21 -199 -3 3 -27 73 -51
155 -55 183 -53 177 -66 169 -7 -5 -6 -12 4 -23 8 -10 20 -57 27 -107 7 -49
28 -144 46 -210 53 -188 42 -197 -20 -18 -38 108 -110 266 -100 218 4 -16 15
-52 25 -80 19 -51 69 -283 69 -317 0 -42 -20 -4 -36 70 -22 102 -84 261 -140
357 -24 43 -44 81 -44 84 1 3 15 15 33 26 24 15 39 39 62 97 16 43 32 78 35
78 4 0 25 -18 48 -40z m-1083 -42 c-3 -24 -8 -54 -10 -68 -2 -14 -15 -70 -30
-125 -33 -130 -25 -47 12 118 26 115 42 158 28 75z m-1940 -67 c-3 -5 -29 -17
-58 -27 -28 -9 -70 -26 -92 -36 l-40 -19 50 5 c141 16 170 17 155 8 -8 -6 -51
-15 -95 -22 -44 -6 -90 -14 -102 -17 -16 -4 -23 -1 -23 9 0 26 40 52 123 80
97 32 90 30 82 19z m149 -11 c-10 -10 -106 -31 -113 -24 -2 2 11 10 30 18 39
18 99 22 83 6z m3878 -51 c109 -31 126 -39 151 -66 16 -19 16 -21 -13 -48 -32
-31 -31 -41 8 -56 14 -5 82 -46 151 -91 69 -45 137 -88 150 -96 l24 -15 -28
-14 c-34 -18 -46 -14 -160 61 -84 55 -226 135 -212 120 4 -5 69 -52 144 -104
75 -52 138 -101 141 -107 2 -7 -8 -17 -23 -23 -22 -8 -32 -6 -58 13 -18 13
-59 39 -92 57 -33 19 -64 39 -70 46 -19 22 -103 65 -109 55 -3 -5 20 -26 52
-46 31 -21 82 -54 112 -75 30 -20 63 -40 73 -43 31 -12 8 -27 -40 -27 -61 0
-159 52 -243 130 -36 32 -79 67 -97 77 -30 16 -33 16 -51 0 -18 -16 -92 -22
-92 -6 0 4 -6 6 -12 6 -7 -1 -29 2 -48 7 -63 13 -138 -32 -269 -164 -62 -63
-127 -132 -144 -154 -35 -44 -47 -35 -21 16 17 34 186 206 230 234 41 27 27
37 -18 12 -24 -13 -69 -49 -102 -82 -32 -32 -53 -48 -46 -35 44 82 162 220
243 283 63 49 205 129 277 157 50 19 53 19 192 -22z m-3752 -3 c0 -2 -30 -9
-67 -16 -60 -10 -371 -102 -394 -116 -5 -3 -9 4 -9 15 0 22 16 28 150 56 41 8
102 24 135 35 33 10 69 21 80 23 26 6 105 8 105 3z m2570 -86 c19 -38 32 -72
28 -75 -9 -10 -118 48 -118 63 0 23 31 82 44 82 6 -1 27 -32 46 -70z m-2535
50 c-3 -5 -11 -10 -16 -10 -6 0 -7 5 -4 10 3 6 11 10 16 10 6 0 7 -4 4 -10z
m-135 -63 c-19 -5 -73 -20 -120 -34 -218 -64 -217 -64 -231 -47 -9 11 -8 14 2
15 8 0 21 2 29 4 105 24 159 37 180 45 41 16 154 38 165 32 5 -4 -6 -10 -25
-15z m3035 -41 c15 -33 20 -56 14 -54 -7 2 -18 20 -24 39 -35 100 -31 107 10
15z m-2702 35 c14 -14 -46 -69 -115 -109 -63 -35 -148 -114 -148 -137 0 -9 7
-18 17 -22 11 -4 30 9 62 44 25 28 72 67 104 87 31 20 82 52 112 71 30 19 61
35 69 35 8 0 72 -23 142 -51 71 -28 149 -58 174 -68 25 -9 45 -23 45 -31 0
-17 -64 -38 -120 -39 -82 -2 -142 -31 -98 -48 18 -7 200 12 273 28 43 9 51 7
140 -35 52 -24 129 -66 170 -93 63 -42 84 -63 131 -134 74 -110 121 -197 116
-212 -2 -7 -13 3 -23 21 -34 61 -112 159 -156 196 -54 46 -150 93 -218 106
-46 9 -153 1 -201 -14 -8 -2 -26 -7 -41 -10 -17 -4 -28 -13 -28 -23 0 -14 8
-15 68 -7 37 5 105 9 152 9 116 0 155 -21 297 -158 62 -61 111 -112 109 -115
-3 -2 -29 11 -58 30 -255 168 -279 176 -473 157 -71 -7 -147 -9 -168 -5 -58
11 -94 50 -127 139 -50 137 -93 177 -189 177 -51 0 -104 -23 -180 -78 -65 -47
-85 -48 -184 -6 -48 20 -89 39 -92 43 -2 5 30 30 73 56 42 26 84 53 93 59 9 6
52 35 95 65 97 66 103 71 81 71 -9 0 -58 -28 -109 -63 -133 -89 -251 -157
-276 -157 -22 0 -43 21 -26 27 5 2 74 42 154 90 172 103 226 125 294 118 27
-2 54 -9 59 -14z m3880 -5 c18 -7 61 -33 97 -57 36 -24 84 -53 108 -63 23 -10
42 -25 42 -31 0 -17 -25 -26 -47 -18 -15 5 -186 103 -288 165 l-30 18 43 0
c23 0 57 -6 75 -14z m-4175 -28 c-2 -7 -58 -41 -123 -75 -113 -58 -176 -76
-189 -54 -7 10 119 69 219 102 39 13 72 27 73 32 6 12 24 8 20 -5z m4124 -46
c46 -26 116 -66 155 -87 69 -37 72 -40 56 -57 -9 -10 -20 -18 -25 -18 -5 0
-64 33 -131 74 -67 40 -141 83 -165 95 -23 12 -40 26 -37 31 13 22 68 8 147
-38z m-1522 -10 c63 -43 120 -113 120 -148 0 -32 -5 -30 -42 11 -17 20 -32 34
-34 32 -3 -2 18 -37 44 -78 58 -88 79 -143 86 -224 5 -57 4 -59 -9 -30 -8 17
-14 41 -15 55 0 36 -67 145 -117 191 -55 50 -76 51 -30 0 33 -36 137 -184 137
-195 0 -2 -26 23 -57 56 -76 80 -129 113 -233 145 -95 29 -128 56 -166 138
-13 27 -22 50 -21 51 1 1 28 -2 59 -6 65 -9 114 -1 159 28 38 24 48 21 119
-26z m-370 -79 c51 -110 62 -119 185 -159 108 -34 151 -61 222 -138 73 -77
106 -152 107 -241 1 -75 -43 -325 -60 -344 -19 -20 -42 -7 -144 79 -130 111
-198 132 -280 84 -28 -17 -73 -82 -85 -124 -4 -14 -42 -95 -83 -180 l-76 -155
-4 -135 c-1 -74 -3 -151 -3 -171 0 -20 26 -112 58 -205 l58 -169 0 -170 0
-170 53 -102 c40 -76 65 -113 99 -140 l46 -37 -6 -71 c-4 -38 -11 -108 -16
-155 -6 -47 -22 -212 -36 -365 -22 -241 -24 -292 -14 -365 12 -92 10 -145 -6
-145 -5 0 -14 25 -18 55 -5 30 -19 109 -32 175 -13 66 -27 147 -31 180 -3 33
-17 130 -30 215 -13 85 -33 216 -45 290 -11 74 -49 293 -85 485 -36 193 -72
388 -81 435 -8 47 -36 186 -63 310 -72 336 -141 724 -142 800 0 45 6 79 18
105 28 61 103 126 203 180 69 36 100 59 118 87 31 46 40 111 24 174 -22 85 24
185 84 184 15 -1 30 -23 65 -97z m2783 -134 c20 -5 37 -12 37 -14 0 -3 -6 -22
-14 -42 -13 -32 -32 -99 -86 -303 -5 -19 -19 -69 -30 -110 l-21 -75 -140 -136
c-76 -74 -141 -133 -144 -131 -15 15 23 177 86 364 10 32 19 67 19 79 0 12 22
51 49 88 56 76 72 105 96 181 35 105 62 123 148 99z m362 -81 c-47 -44 -95
-88 -107 -98 -37 -29 -226 -223 -253 -260 l-25 -34 0 32 c0 30 34 181 66 289
8 28 14 55 13 60 -1 4 -1 25 0 46 l1 38 83 -6 c45 -3 120 -2 167 3 155 15 150
21 55 -70z m137 -131 c2 -190 1 -268 -4 -528 l-3 -155 -109 -120 c-60 -65
-118 -129 -130 -141 l-21 -22 -85 24 c-47 14 -103 25 -125 25 -44 1 -103 26
-118 50 -6 11 -4 28 6 52 12 29 32 46 99 86 l85 50 109 4 c60 3 123 10 139 17
29 12 29 13 11 27 -14 9 -47 14 -103 14 -103 0 -106 9 -28 91 58 60 68 91 36
109 -16 8 -21 6 -26 -11 -4 -12 -40 -57 -81 -101 -41 -43 -74 -82 -74 -87 0
-7 -131 -91 -210 -135 -19 -10 -78 -37 -130 -58 -52 -22 -108 -48 -125 -58
-16 -10 -61 -30 -100 -45 -38 -14 -74 -30 -79 -35 -6 -6 -14 -10 -18 -10 -18
0 -6 30 30 71 20 24 49 60 64 79 26 36 126 145 253 278 71 75 153 142 174 142
7 0 60 23 119 51 59 28 124 57 146 65 21 8 64 29 95 48 31 18 74 39 96 46 54
17 63 27 42 47 -15 15 -24 12 -139 -44 -68 -34 -141 -67 -163 -74 -22 -6 -64
-22 -92 -35 -29 -13 -53 -20 -53 -17 0 4 109 117 243 253 168 171 246 243 254
237 9 -6 13 -62 15 -190z m-677 121 c-9 -27 -68 -129 -103 -176 l-24 -33 -23
21 c-19 18 -24 19 -34 6 -10 -12 -9 -21 3 -45 9 -16 16 -38 16 -47 0 -9 -20
-80 -44 -158 -24 -77 -54 -179 -66 -226 -42 -159 -52 -185 -62 -166 -5 9 -7
31 -3 49 11 60 -14 3 -34 -75 -18 -75 -39 -118 -55 -118 -12 0 -1 131 17 198
11 41 11 52 1 52 -16 0 -40 -77 -48 -153 -8 -70 -40 -173 -66 -207 -18 -23
-20 -23 -20 -5 0 11 14 90 30 175 39 198 37 185 21 185 -10 0 -24 -52 -52
-190 -37 -181 -62 -265 -80 -265 -15 0 -21 46 -11 86 6 22 13 71 17 109 4 39
17 136 30 217 27 167 40 199 135 318 57 71 71 100 51 100 -5 0 -20 -14 -33
-30 -50 -65 -70 -86 -63 -65 4 11 13 49 22 85 31 138 18 121 118 145 122 29
179 60 277 154 45 44 84 80 86 81 2 0 0 -10 -3 -22z m-1418 -135 c-24 -71 -57
-203 -57 -228 -1 -29 -28 -102 -29 -78 -1 7 -10 37 -22 68 -17 46 -24 55 -45
55 -30 0 -30 -4 2 -87 34 -91 54 -155 49 -163 -2 -3 -16 -109 -30 -235 -14
-127 -29 -237 -31 -245 -15 -42 -154 174 -185 288 -19 67 -32 84 -56 75 -19
-8 -17 -25 21 -121 32 -82 99 -202 171 -302 38 -54 47 -77 40 -101 -8 -26 -30
-24 -43 4 -20 41 -12 -6 8 -52 20 -43 28 -141 11 -141 -4 0 -35 58 -69 128
-60 129 -92 175 -92 135 0 -32 18 -79 93 -238 68 -144 96 -245 69 -245 -9 0
-108 192 -125 243 -4 9 -11 17 -17 17 -6 0 -4 -15 6 -37 9 -21 27 -67 41 -103
13 -36 40 -100 59 -143 32 -71 34 -81 24 -113 l-12 -36 -17 29 c-10 15 -32 64
-50 108 -30 75 -77 168 -68 135 13 -47 43 -138 77 -230 41 -111 53 -175 33
-175 -6 0 -15 -3 -19 -8 -4 -4 -22 41 -40 100 -36 120 -78 220 -69 168 2 -16
21 -91 41 -165 34 -122 38 -148 39 -270 2 -74 6 -150 9 -168 5 -19 4 -32 -2
-32 -18 0 -35 61 -36 134 0 41 -4 72 -8 70 -8 -5 -28 85 -35 166 -3 36 -11 76
-18 90 -7 14 -16 43 -19 64 -4 22 -14 49 -23 60 -14 20 -14 18 -10 -24 2 -25
16 -90 31 -145 18 -62 31 -143 36 -215 22 -307 23 -330 12 -330 -6 0 -13 15
-16 33 -18 123 -24 202 -20 272 3 54 0 98 -10 135 l-15 55 4 -87 c3 -54 1 -88
-5 -90 -7 -2 -11 -74 -12 -196 -1 -106 -5 -189 -9 -185 -4 4 -15 58 -24 118
-21 146 -39 213 -81 314 l-36 83 12 147 c6 80 15 168 21 194 6 31 6 55 -1 65
-6 12 -9 13 -10 3 0 -7 -13 -29 -30 -48 -27 -30 -30 -41 -30 -97 0 -69 -9
-126 -19 -126 -3 0 -28 63 -55 139 l-48 140 30 93 c52 157 93 417 67 418 -37
3 -42 -8 -48 -91 -5 -82 -33 -207 -63 -277 -12 -30 -17 -34 -27 -21 -40 44
-104 286 -90 339 4 13 1 20 -6 18 -12 -3 -46 94 -137 384 -33 108 -55 150 -70
135 -6 -6 4 -49 76 -327 22 -85 40 -165 40 -178 0 -20 -2 -22 -22 -11 -13 7
-39 26 -59 43 -20 17 -45 38 -55 46 -11 8 -34 27 -52 43 -37 29 -62 35 -62 13
0 -13 33 -44 211 -197 58 -49 65 -64 173 -341 51 -128 57 -165 28 -149 -39 21
-200 172 -252 237 -30 38 -77 91 -103 119 l-48 50 6 -50 c3 -27 7 -64 8 -81 3
-41 20 -61 61 -68 62 -12 426 -381 426 -432 0 -6 -12 -14 -26 -17 -34 -6 -101
29 -189 98 -120 94 -132 102 -116 80 8 -11 30 -37 49 -57 l35 -37 -93 0 c-51
0 -95 -3 -98 -6 -16 -16 29 -29 120 -35 97 -6 106 -8 154 -41 28 -20 87 -50
132 -68 92 -37 103 -47 131 -118 18 -46 61 -231 61 -262 0 -25 -28 -6 -112 75
-56 54 -95 84 -106 82 -9 -2 -41 15 -70 39 -54 43 -72 51 -72 33 0 -6 -11 -15
-24 -21 -19 -9 -33 -7 -71 10 -26 12 -50 21 -53 21 -17 0 42 -32 94 -51 74
-28 193 -103 149 -94 -29 5 -29 5 5 -11 19 -9 49 -22 67 -30 52 -22 112 -83
159 -163 37 -63 44 -84 43 -126 -1 -39 -2 -45 -8 -25 -11 34 -106 193 -125
209 -13 11 -14 9 -6 -19 5 -18 23 -56 39 -85 43 -76 77 -215 52 -215 -5 0 -12
11 -15 25 -9 36 -63 125 -99 164 -18 18 -70 59 -117 91 -47 32 -101 75 -120
95 -19 21 -66 61 -105 90 -90 68 -96 75 -142 170 l-38 80 2 120 c3 139 -22
273 -81 431 -35 92 -36 96 -38 266 l-2 173 38 80 c55 116 101 214 121 263 35
81 99 111 165 77 16 -8 73 -51 127 -96 l98 -81 76 5 c86 6 114 18 214 92 59
43 84 72 158 183 72 107 109 150 198 232 66 61 117 100 130 100 16 0 20 -4 16
-17z m125 -5 c15 -7 95 -107 156 -195 l22 -31 -19 -94 c-11 -51 -29 -127 -40
-168 -11 -41 -29 -124 -40 -185 -25 -142 -32 -159 -94 -225 -29 -31 -83 -93
-121 -138 -39 -45 -73 -82 -77 -82 -22 0 -20 115 6 386 19 193 42 354 60 424
22 83 47 269 41 295 -3 12 -3 25 1 28 7 8 81 -2 105 -15z m-4067 -159 c33 -10
79 -21 101 -25 41 -6 42 -7 93 -113 67 -139 81 -189 81 -288 0 -126 1 -127
-190 122 -68 88 -154 194 -192 236 -37 42 -68 82 -68 89 0 16 91 5 175 -21z
m4830 -74 c-14 -48 -25 -95 -25 -105 0 -9 -5 -31 -11 -48 -9 -25 -17 -32 -50
-37 -21 -4 -39 -9 -39 -11 0 -3 9 -23 20 -44 18 -34 19 -46 9 -87 -6 -27 -22
-111 -36 -188 -73 -404 -68 -385 -90 -385 -14 0 -15 10 -9 75 4 44 3 75 -2 75
-10 0 -17 -28 -28 -117 -6 -52 -35 -113 -54 -113 -13 0 -13 9 5 105 18 102 19
148 3 143 -8 -3 -23 -62 -38 -149 -20 -111 -31 -152 -50 -176 -27 -37 -32 -39
-49 -19 -13 15 -7 111 10 176 6 19 16 74 24 122 21 122 58 230 109 321 25 42
41 77 37 77 -17 0 -93 -75 -110 -109 -55 -110 -134 -428 -156 -628 -4 -34 -13
-70 -21 -80 -12 -16 -14 -11 -16 42 -3 73 -2 106 3 215 3 74 1 85 -14 88 -11
2 -17 -3 -18 -15 0 -10 -4 -101 -8 -203 -7 -182 -18 -239 -43 -224 -8 5 -9 69
-4 220 6 197 2 247 -19 214 -4 -6 -10 -118 -13 -249 -5 -178 -10 -242 -21
-254 -7 -9 -17 -14 -22 -11 -5 3 -9 76 -10 162 0 156 -10 226 -23 172 -3 -14
-8 -107 -10 -207 -3 -114 -10 -191 -17 -205 -12 -22 -12 -22 -20 -3 -4 11 -8
91 -8 178 -1 133 -3 157 -16 157 -11 0 -15 -14 -16 -57 -1 -32 -3 -92 -5 -133
-2 -41 -3 -110 -4 -152 0 -63 -3 -78 -15 -78 -9 0 -18 6 -20 13 -4 10 -10 149
-14 354 -1 22 -5 31 -17 29 -13 -2 -15 -31 -14 -233 0 -159 -3 -234 -10 -238
-6 -4 -13 -5 -16 -2 -2 2 -9 55 -14 118 -5 63 -13 143 -17 179 -4 36 -8 110
-8 165 0 99 0 101 43 179 46 84 205 290 266 344 20 17 63 45 95 62 56 28 121
91 121 116 0 15 -47 -9 -109 -54 -24 -18 -48 -32 -54 -32 -34 0 62 517 98 523
27 5 10 -99 -64 -375 -15 -60 -27 -108 -25 -108 11 0 47 94 83 220 53 184 71
232 85 227 21 -7 17 -40 -25 -188 -38 -134 -44 -181 -21 -153 9 9 72 206 92
282 10 38 14 42 33 36 42 -12 49 -27 31 -62 -8 -18 -14 -42 -12 -54 3 -19 8
-15 29 27 23 47 27 50 72 57 39 5 61 18 125 71 42 36 95 84 117 106 22 23 41
38 43 33 1 -5 -9 -49 -23 -97z m-5010 64 c4 -11 26 -44 49 -72 58 -72 177
-234 205 -279 31 -52 17 -50 -127 13 -64 29 -128 55 -142 59 -25 7 -25 7 -24
116 0 116 9 184 24 184 5 0 12 -9 15 -21z m448 -43 c18 -7 49 -25 70 -39 43
-29 62 -36 200 -67 53 -13 97 -26 97 -29 0 -3 15 -6 33 -6 26 0 32 -4 29 -20
-11 -90 -17 -187 -10 -191 4 -3 8 -2 9 3 0 4 2 40 5 78 6 88 12 115 25 115 6
0 37 -17 70 -37 55 -36 59 -41 60 -78 1 -37 2 -38 8 -10 l6 30 18 -25 c21 -30
22 -62 2 -101 -17 -32 -23 -89 -11 -107 15 -25 26 -10 26 37 0 57 15 105 30
96 5 -3 10 -19 10 -35 0 -17 9 -53 20 -82 25 -67 25 -79 -1 -112 -27 -35 -13
-56 26 -38 46 21 65 68 65 158 0 78 1 81 35 114 19 19 47 51 61 71 25 37 76
69 108 69 14 0 16 -19 15 -152 -1 -84 -4 -164 -8 -178 -7 -24 -8 -23 -46 27
-41 53 -61 68 -70 54 -4 -8 44 -85 95 -151 14 -18 25 -65 39 -165 30 -207 31
-285 7 -285 -19 0 -145 189 -176 263 -13 31 -30 57 -37 57 -16 0 -16 -1 1 -71
7 -31 22 -69 33 -85 11 -16 31 -49 43 -74 13 -25 49 -79 80 -120 67 -89 82
-115 78 -138 -4 -19 -98 104 -129 167 -24 51 -39 60 -39 24 0 -31 14 -55 112
-201 70 -104 107 -199 123 -322 9 -71 1 -62 -20 20 -19 74 -90 230 -106 230
-5 0 -3 -12 5 -28 8 -15 17 -44 21 -65 4 -20 11 -35 15 -32 10 6 50 -113 85
-254 15 -58 33 -120 41 -139 20 -49 18 -50 -12 -7 -14 21 -47 102 -72 179 -26
78 -50 143 -53 146 -4 3 -25 59 -48 125 -22 66 -46 122 -52 124 -8 2 -10 -2
-5 -15 5 -11 12 -35 18 -54 14 -54 50 -153 64 -175 7 -11 20 -58 29 -105 10
-47 26 -107 36 -134 22 -59 13 -51 -36 29 -20 33 -49 105 -66 160 -40 132 -39
128 -43 124 -3 -3 5 -67 19 -146 2 -12 8 -31 15 -42 7 -14 7 -21 1 -21 -6 0
-13 11 -17 24 -3 14 -11 23 -17 20 -12 -4 -47 46 -81 113 -9 18 -25 72 -37
120 -31 135 -72 273 -80 273 -8 0 -6 -13 6 -72 4 -14 8 -43 10 -65 2 -21 8
-59 13 -86 5 -26 6 -50 1 -52 -11 -8 -32 33 -25 50 3 8 1 17 -4 20 -6 4 -10
19 -10 36 0 16 -4 29 -9 29 -5 0 -12 20 -15 45 -4 25 -11 45 -15 45 -11 0 -12
-60 -2 -113 4 -26 5 -47 1 -47 -13 0 -59 67 -81 117 -34 77 -69 195 -83 280
-8 43 -32 130 -54 194 -46 130 -72 291 -72 449 -1 88 -2 93 -14 65 -11 -27
-24 -131 -26 -215 -1 -37 -14 -11 -50 95 -17 50 -40 104 -51 120 -12 17 -18
22 -14 10 19 -55 55 -168 55 -171 0 -2 -9 5 -20 16 -11 11 -48 33 -82 50 -51
25 -58 26 -34 8 115 -89 195 -202 225 -318 11 -41 29 -109 41 -150 25 -88 42
-207 34 -232 -13 -41 -20 -33 -263 296 -110 148 -111 151 -111 205 0 30 -5 95
-12 145 -10 79 -19 105 -70 205 -71 140 -68 162 15 127z m3078 -77 c-11 -41
-25 -103 -32 -139 -13 -73 -28 -110 -29 -72 0 57 64 301 77 289 2 -3 -5 -38
-16 -78z m64 -19 c-14 -52 -25 -103 -25 -112 0 -24 -20 -72 -26 -65 -6 5 52
252 63 270 14 23 10 -8 -12 -93z m-1258 -152 c-3 -8 -6 -5 -6 6 -1 11 2 17 5
13 3 -3 4 -12 1 -19z m-756 -23 c33 -19 99 -46 147 -60 48 -14 92 -32 99 -41
6 -9 15 -42 18 -73 10 -87 26 -163 41 -193 8 -16 38 -46 67 -69 45 -36 55 -50
73 -108 24 -78 43 -116 92 -184 l36 -50 -2 -162 -3 -162 30 -59 c17 -33 33
-78 37 -101 5 -36 3 -45 -19 -67 -29 -29 -69 -34 -112 -14 l-26 12 38 39 38
40 -68 -48 c-71 -49 -86 -50 -87 -3 0 14 65 97 105 133 6 6 19 20 29 33 15 17
16 22 5 22 -8 0 -48 -32 -89 -70 -41 -39 -82 -72 -91 -75 -24 -8 -30 -30 -18
-62 7 -19 6 -36 -4 -62 -27 -68 -77 -332 -77 -403 0 -67 -17 -68 -35 -1 -9 32
-28 87 -42 123 -49 126 -41 282 23 414 13 28 29 69 35 91 9 32 108 179 162
238 6 7 26 28 42 46 l30 33 -30 -8 -30 -7 21 24 c26 29 47 69 41 75 -3 3 -20
-18 -38 -45 -18 -28 -35 -51 -39 -51 -4 0 -22 -21 -40 -47 -88 -126 -99 -120
-94 55 3 70 6 138 7 152 1 19 -3 26 -20 28 -13 2 -23 0 -24 -5 0 -4 -2 -24 -4
-43 -2 -19 -7 -118 -10 -220 -6 -159 -10 -193 -30 -245 -49 -126 -79 -195 -87
-195 -20 0 -97 313 -98 399 0 48 7 67 56 155 31 56 67 115 80 133 34 46 30
112 -4 70 -6 -7 -24 -37 -40 -68 -51 -97 -101 -169 -118 -169 -14 0 -15 11
-10 93 6 79 13 103 46 172 50 104 101 170 150 195 22 11 40 27 40 35 0 19 -9
19 -34 0 -18 -14 -56 -21 -56 -11 0 3 11 47 25 98 14 51 25 102 25 112 0 18
-1 18 -19 2 -13 -11 -28 -52 -41 -110 -19 -80 -82 -227 -125 -289 -13 -18 -14
-18 -23 0 -5 10 -10 34 -10 53 -1 19 -5 49 -10 65 -5 17 -8 116 -6 220 3 247
3 255 10 255 3 0 32 -16 65 -35z m-1455 -55 c82 -39 158 -76 169 -82 75 -42
246 -231 355 -391 30 -44 59 -86 65 -93 17 -23 -2 -25 -51 -5 -280 112 -335
141 -378 200 -20 27 -74 82 -121 121 -47 40 -85 76 -85 81 0 4 -21 20 -47 35
-27 15 -56 34 -65 42 -10 9 -18 10 -18 4 0 -11 9 -21 173 -181 60 -58 107
-112 107 -123 0 -16 -9 -18 -89 -18 -48 0 -109 3 -133 6 -41 6 -48 10 -67 49
-56 112 -58 150 -13 260 11 28 23 76 27 108 4 31 11 57 15 57 4 0 74 -32 156
-70z m2221 38 c-3 -8 -6 -5 -6 6 -1 11 2 17 5 13 3 -3 4 -12 1 -19z m-1150
-175 c-3 -10 -5 -2 -5 17 0 19 2 27 5 18 2 -10 2 -26 0 -35z m1050 25 c-3 -8
-6 -5 -6 6 -1 11 2 17 5 13 3 -3 4 -12 1 -19z m60 -20 c-3 -8 -6 -5 -6 6 -1
11 2 17 5 13 3 -3 4 -12 1 -19z m-50 -30 c-3 -8 -6 -5 -6 6 -1 11 2 17 5 13 3
-3 4 -12 1 -19z m3346 -204 c25 -21 134 -48 243 -59 89 -10 91 -12 61 -86 -13
-35 -37 -97 -52 -136 -15 -40 -30 -73 -35 -73 -4 0 -28 9 -54 21 -73 32 -91
19 -28 -21 48 -31 51 -35 37 -49 -14 -15 -21 -13 -76 17 -62 34 -94 35 -63 1
9 -10 36 -28 60 -40 24 -11 44 -27 44 -35 0 -29 -34 -28 -91 4 -32 18 -65 32
-73 32 -27 0 -7 -24 43 -52 112 -63 95 -81 -81 -85 -128 -3 -134 -4 -181 -33
-56 -35 -60 -36 -78 -13 -8 9 -47 31 -86 49 -40 19 -73 37 -73 42 0 16 82 41
185 57 137 20 229 48 233 68 4 22 -7 21 -143 -3 -60 -11 -120 -20 -132 -20
l-23 0 20 33 c22 36 26 67 8 67 -7 0 -35 -24 -63 -54 -46 -50 -90 -86 -172
-144 -23 -17 -61 -26 -145 -37 -62 -8 -152 -26 -200 -40 -48 -14 -99 -25 -113
-25 -14 0 -35 -5 -46 -11 -81 -43 11 59 246 271 138 125 219 176 508 320 l282
141 7 -43 c5 -26 17 -51 31 -64z m-5543 -61 c36 -8 101 -19 144 -22 l79 -6 23
-69 c13 -37 28 -73 33 -80 17 -21 51 -86 45 -86 -4 0 -38 11 -76 25 -69 25
-121 33 -102 16 5 -5 52 -28 105 -51 84 -36 99 -47 118 -81 l23 -40 -29 7
c-15 4 -61 17 -100 29 -40 13 -73 21 -73 19 0 -8 144 -74 162 -74 9 0 29 -11
44 -25 15 -14 33 -25 40 -25 8 0 28 -17 46 -37 18 -21 54 -60 81 -89 63 -69
62 -79 -10 -70 -32 4 -125 9 -208 11 -210 6 -287 13 -384 36 -46 10 -86 17
-88 15 -10 -10 95 -61 151 -74 34 -8 140 -16 236 -18 373 -9 436 -20 545 -94
118 -80 101 -60 -158 187 -59 57 -107 108 -107 114 0 6 -26 41 -58 78 -32 36
-77 91 -100 122 -43 59 -142 227 -142 241 0 5 17 -1 38 -12 20 -11 120 -56
222 -101 246 -107 247 -107 289 -157 20 -24 60 -71 89 -104 29 -34 51 -62 50
-63 -2 -2 -68 6 -147 17 -118 16 -149 17 -168 7 -31 -17 -15 -26 61 -34 73 -8
194 -32 209 -42 7 -4 25 -6 42 -5 16 1 42 -5 56 -15 32 -22 79 -77 79 -92 0
-11 -82 30 -113 57 -9 8 -19 13 -22 10 -3 -2 32 -37 78 -77 125 -112 249 -233
243 -238 -3 -3 -70 42 -148 101 -79 59 -159 117 -178 129 l-35 21 30 -31 c17
-16 75 -67 130 -112 55 -44 125 -101 155 -127 86 -71 88 -73 93 -68 3 3 8 0
13 -7 4 -7 3 -10 -4 -5 -5 3 -12 1 -14 -5 -3 -9 -10 -9 -27 1 -39 20 -15 -6
60 -66 61 -49 95 -94 128 -168 2 -5 -14 9 -35 30 -22 22 -71 58 -109 81 -39
23 -78 55 -87 70 l-17 28 2 -30 c3 -46 -23 -43 -205 20 -90 31 -192 61 -228
66 -36 5 -114 27 -175 50 -60 22 -144 53 -184 69 -50 18 -78 34 -85 49 -10 24
-36 29 -36 7 0 -35 19 -52 113 -96 l99 -48 -176 5 c-146 4 -189 2 -251 -12
-41 -10 -75 -21 -75 -24 0 -4 30 -4 68 0 37 4 157 5 267 2 277 -6 295 -11 172
-52 -39 -13 -92 -37 -117 -53 -49 -32 -183 -98 -199 -98 -6 0 -17 13 -25 29
-8 15 -43 50 -77 77 -105 82 -113 94 -153 215 -20 62 -59 157 -87 212 -27 55
-46 103 -42 108 4 4 41 17 81 29 61 18 81 20 121 11 25 -5 85 -13 133 -17 82
-6 86 -5 93 15 3 11 10 21 15 21 15 0 24 -24 12 -28 -7 -2 -10 -8 -7 -12 3 -5
29 3 58 17 48 25 50 27 27 33 -14 4 -78 8 -143 9 -65 1 -125 5 -133 8 -8 3
-17 17 -19 32 -3 14 -13 51 -23 81 -9 30 -18 61 -20 68 -2 7 6 12 19 12 23 0
23 0 3 14 -11 8 -28 32 -37 53 -66 155 -77 182 -77 187 0 9 20 7 90 -11z m906
-350 c-10 -10 -27 71 -20 95 6 23 8 18 16 -32 4 -33 6 -61 4 -63z m4212 -194
c80 -27 101 -37 96 -49 -4 -8 -16 -41 -26 -73 -24 -70 -51 -87 -139 -87 -55 0
-67 4 -91 27 -26 25 -31 26 -51 13 -12 -7 -43 -15 -69 -16 -39 -2 -48 0 -48
14 0 20 199 215 214 209 6 -3 57 -20 114 -38z m-266 -14 c3 -3 -11 -22 -31
-43 -20 -21 -52 -60 -71 -87 -19 -27 -49 -59 -66 -70 -17 -12 -112 -43 -210
-70 -181 -49 -334 -104 -367 -133 -27 -24 -28 -10 -2 20 22 26 133 108 278
204 38 25 66 48 64 50 -5 6 -174 -95 -222 -132 -45 -34 -49 -30 -17 21 46 73
120 120 277 174 105 36 156 47 245 57 36 3 67 8 69 10 6 6 47 5 53 -1z m-913
-307 c1 -86 -3 -138 -9 -138 -6 0 -10 60 -9 163 1 96 4 152 9 137 4 -14 8 -87
9 -162z m-2412 -50 c-3 -8 -6 -5 -6 6 -1 11 2 17 5 13 3 -3 4 -12 1 -19z m486
16 c13 -5 12 -12 -5 -50 -17 -39 -18 -53 -10 -107 11 -70 5 -88 -54 -140 -64
-55 -87 -109 -92 -210 -6 -110 -19 -102 -33 22 -12 95 -8 135 26 311 17 84 51
177 61 167 3 -3 -4 -23 -15 -46 -28 -54 -26 -64 4 -19 26 38 72 77 92 78 6 0
18 -3 26 -6z m1824 -16 c-3 -8 -6 -5 -6 6 -1 11 2 17 5 13 3 -3 4 -12 1 -19z
m1584 -36 c-11 -21 -23 -56 -26 -77 -13 -68 -16 -70 -71 -32 -69 47 -68 61 5
87 33 12 68 31 77 41 28 31 36 22 15 -19z m-1217 -40 c-107 -87 -209 -175
-256 -221 -62 -59 -75 -60 -31 -2 50 65 97 111 162 158 81 58 179 110 125 65z
m1371 -2 c18 -20 17 -20 -18 -20 -25 0 -44 -7 -59 -22 -21 -21 -23 -21 -26 -5
-11 54 65 89 103 47z m-1739 -48 c-12 -12 -18 8 -10 35 l8 28 4 -28 c2 -16 1
-31 -2 -35z m-3098 22 c22 -6 22 -8 7 -31 -23 -34 -12 -39 17 -10 23 23 29 24
77 16 58 -9 133 -32 196 -60 l39 -18 -27 -10 c-15 -6 -39 -14 -53 -17 -17 -4
-22 -10 -16 -16 7 -7 36 -4 83 7 147 33 244 0 364 -126 28 -29 91 -83 140
-119 89 -67 185 -160 185 -180 0 -15 -8 -13 -54 20 -45 30 -82 46 -175 75 -80
24 -97 40 -143 128 -52 100 -79 133 -123 147 -43 14 -76 7 -170 -36 -41 -19
-82 -34 -93 -34 -26 0 -94 61 -131 119 -18 27 -40 53 -49 57 -25 11 -82 13
-82 2 0 -5 -20 -50 -45 -101 -52 -106 -136 -209 -156 -190 -9 9 -6 19 11 45
l23 33 -40 -38 -40 -38 -37 15 c-20 8 -36 19 -36 24 0 17 99 102 185 158 89
58 104 76 41 50 -49 -20 -115 -67 -188 -132 -65 -58 -78 -63 -99 -38 -11 13
-8 19 21 42 19 15 46 37 60 50 l25 23 -25 -12 c-14 -6 -44 -27 -66 -45 -38
-30 -44 -32 -68 -21 -14 7 -26 17 -26 22 0 6 25 30 55 54 30 24 61 51 68 60
13 17 -49 -27 -101 -71 -38 -33 -45 -34 -67 -11 -16 16 -16 18 1 31 11 8 79
43 152 79 183 87 289 116 360 97z m2929 -26 c-3 -8 -6 -5 -6 6 -1 11 2 17 5
13 3 -3 4 -12 1 -19z m1637 -34 c48 -41 66 -63 66 -80 0 -22 -7 -19 -82 43
-46 37 -85 69 -88 71 -5 3 21 22 32 22 3 0 36 -25 72 -56z m-56 -56 c105 -89
112 -96 112 -116 0 -13 -141 88 -202 146 -34 33 -41 52 -17 52 5 0 54 -37 107
-82z m-77 -34 c133 -108 179 -152 179 -171 0 -16 -272 189 -294 222 -16 25
-21 45 -10 45 3 0 60 -43 125 -96z m-124 -2 c38 -32 114 -93 171 -137 113 -86
119 -92 104 -107 -10 -10 -87 46 -320 229 -37 29 -68 50 -70 48 -14 -14 137
-153 303 -279 56 -42 72 -63 58 -77 -6 -6 -30 7 -64 34 -30 25 -92 70 -139
102 -47 32 -101 71 -121 86 -43 34 -54 36 -40 10 6 -10 46 -45 88 -77 127 -95
233 -187 233 -200 0 -7 -9 -18 -21 -25 -18 -9 -25 -7 -48 14 -58 54 -226 158
-285 176 -75 24 -215 80 -279 113 -60 30 -53 38 58 67 44 12 123 34 175 50 52
16 103 30 112 30 10 1 48 -25 85 -57z m-4252 -50 c-7 -2 -16 -10 -19 -19 -6
-14 -4 -14 11 -2 10 7 0 -6 -22 -29 -21 -23 -35 -42 -31 -42 5 0 -3 -9 -18
-21 -14 -11 -26 -25 -26 -30 0 -6 16 2 35 17 20 15 38 24 41 21 4 -3 -19 -22
-51 -42 -31 -20 -59 -34 -62 -32 -5 5 89 189 110 215 9 11 14 9 28 -10 14 -18
15 -24 4 -26z m2222 -149 c-6 -145 -40 -409 -45 -351 -2 20 2 76 7 125 6 48
16 148 23 221 7 72 14 132 17 132 2 0 1 -57 -2 -127z m-2187 114 c0 -2 -12
-14 -27 -28 l-28 -24 24 28 c23 25 31 32 31 24z m14 -43 c-41 -33 -53 -30 -19
6 15 16 32 27 38 23 5 -3 -4 -16 -19 -29z m673 2 c23 -22 32 -36 24 -40 -6 -4
-10 -3 -9 3 2 5 -13 23 -32 40 -19 17 -31 30 -27 31 5 0 24 -15 44 -34z m3061
-8 c29 -16 64 -45 79 -64 14 -19 78 -77 142 -128 64 -51 129 -109 144 -129
l28 -37 -29 0 c-23 0 -59 25 -161 110 -72 60 -131 105 -131 100 0 -16 75 -94
151 -156 38 -31 69 -60 69 -65 0 -5 -12 -9 -28 -9 -20 0 -49 19 -107 71 -98
87 -119 102 -141 97 -11 -2 16 -31 85 -92 56 -48 101 -92 101 -96 0 -4 -10
-10 -22 -13 -24 -7 -81 36 -161 122 -46 49 -70 61 -81 42 -4 -5 34 -47 84 -92
49 -46 90 -88 90 -95 0 -14 -23 -25 -64 -30 -16 -2 -34 -8 -41 -14 -8 -7 -25
2 -56 29 -24 22 -73 63 -108 93 -35 29 -66 58 -68 64 -2 7 8 14 22 18 26 7 35
26 11 26 -43 0 -339 165 -333 185 4 11 114 44 261 78 127 30 191 26 264 -15z
m-3808 18 c0 -2 -8 -10 -17 -17 -16 -13 -17 -12 -4 4 13 16 21 21 21 13z m825
-94 c-6 -7 -35 18 -35 31 0 5 9 2 20 -8 11 -10 18 -20 15 -23z m3192 -10 c90
-54 289 -232 271 -243 -26 -17 -51 -8 -92 33 -22 22 -80 72 -128 110 -84 66
-128 111 -128 129 0 15 13 10 77 -29z m-1411 -117 c59 -120 57 -246 -7 -440
-17 -49 -50 -169 -75 -265 -24 -96 -53 -202 -63 -235 -11 -33 -33 -114 -51
-180 -32 -122 -59 -184 -76 -175 -5 3 -8 14 -7 25 1 11 8 110 17 220 34 422
58 648 92 870 19 127 37 248 40 270 4 22 9 44 11 48 10 17 85 -70 119 -138z
m659 74 c113 -58 137 -79 155 -136 20 -62 37 -89 105 -168 28 -33 62 -75 74
-92 l22 -33 -53 0 c-113 0 -151 27 -235 165 -61 101 -103 126 -215 127 -103 2
-146 -19 -233 -116 -73 -82 -91 -87 -54 -15 28 57 119 151 194 203 52 35 159
94 175 96 3 0 32 -14 65 -31z m-969 -109 c-4 -67 -13 -158 -20 -203 -15 -87
-22 -141 -32 -247 -3 -36 -9 -81 -14 -100 -12 -55 -1 150 16 268 8 56 19 155
24 220 6 64 13 132 16 150 13 66 17 28 10 -88z m1904 90 c49 -25 200 -138 200
-149 0 -18 -39 -22 -67 -7 -15 8 -70 54 -122 101 -91 85 -93 97 -11 55z
m-2533 -47 c-3 -10 -5 -4 -5 12 0 17 2 24 5 18 2 -7 2 -21 0 -30z m15 -57 c2
-19 0 -32 -4 -30 -8 5 -12 64 -4 64 2 0 6 -15 8 -34z m1902 -79 c56 -57 119
-118 140 -135 33 -26 37 -33 27 -46 -17 -21 -77 -39 -104 -32 -50 13 -214 316
-171 316 4 0 52 -47 108 -103z m-1223 -107 c-6 -52 -15 -133 -21 -180 -9 -75
-17 -157 -35 -360 -20 -225 -27 -296 -32 -300 -3 -3 -3 29 1 70 3 41 8 111 11
155 3 44 8 105 10 135 3 30 8 91 11 135 3 44 12 134 20 200 7 66 19 172 26
235 11 98 13 107 16 60 2 -30 -1 -98 -7 -150z m-674 93 c-3 -10 -5 -2 -5 17 0
19 2 27 5 18 2 -10 2 -26 0 -35z m30 -263 c-4 -22 -27 159 -26 206 1 21 7 -13
15 -76 8 -63 13 -122 11 -130z m-610 128 c100 -152 234 -412 375 -728 11 -25
38 -85 60 -135 48 -107 198 -493 198 -509 0 -19 -61 104 -120 244 -32 74 -77
178 -100 230 -23 52 -52 120 -65 150 -86 207 -304 640 -392 777 -18 29 -33 55
-33 58 0 20 23 -7 77 -87z m179 -160 c38 -73 100 -200 137 -283 37 -82 86
-188 109 -235 22 -47 61 -130 85 -185 25 -55 49 -105 53 -110 12 -15 70 -168
66 -173 -7 -6 -223 443 -321 668 -66 151 -157 338 -219 450 -33 60 -34 62 -8
33 15 -18 59 -92 98 -165z m905 88 c-8 -52 -18 -93 -21 -91 -8 5 21 185 30
185 3 0 -1 -42 -9 -94z m-446 -176 c8 -52 15 -108 14 -125 0 -16 -9 24 -19 90
-21 134 -22 140 -15 134 2 -3 11 -47 20 -99z m435 60 c0 -5 -4 -10 -10 -10 -5
0 -10 5 -10 10 0 6 5 10 10 10 6 0 10 -4 10 -10z m-13 -82 c-2 -13 -4 -3 -4
22 0 25 2 35 4 23 2 -13 2 -33 0 -45z m48 -159 c-7 -81 -22 -153 -24 -115 -1
27 22 196 27 196 2 0 1 -36 -3 -81z m168 -646 c-16 -96 -82 -373 -94 -393 -15
-27 -10 9 16 116 13 56 34 150 46 210 18 95 33 144 43 144 1 0 -4 -35 -11 -77z"/>
<path d="M3300 8598 c0 -4 7 -8 15 -8 8 0 15 4 15 8 0 5 -7 9 -15 9 -8 0 -15
-4 -15 -9z"/>
<path d="M3650 8052 c0 -24 29 -68 69 -105 59 -53 60 -46 3 21 -27 31 -54 66
-60 77 -6 11 -12 14 -12 7z"/>
<path d="M7286 8791 c-14 -25 -14 -30 -1 -41 31 -26 56 9 39 54 -9 24 -22 19
-38 -13z"/>
<path d="M7251 8689 c-15 -45 -14 -89 3 -89 16 0 41 82 33 105 -10 24 -24 18
-36 -16z"/>
<path d="M6274 7469 c-3 -6 -1 -16 5 -22 8 -8 11 -5 11 11 0 24 -5 28 -16 11z"/>
<path d="M4689 8348 c-7 -13 -28 -52 -47 -88 -75 -138 -82 -154 -82 -170 0 -9
8 -24 19 -34 17 -16 19 -15 24 19 3 19 27 81 52 136 25 55 50 112 55 125 12
31 -5 41 -21 12z"/>
<path d="M4940 8272 c0 -23 -9 -60 -20 -82 -20 -39 -25 -101 -11 -149 l7 -25
22 24 c12 13 23 31 23 39 5 45 3 57 -10 67 -12 9 -12 15 2 35 21 29 22 89 2
115 -13 18 -14 16 -15 -24z"/>
<path d="M4486 8205 c-3 -9 -6 -22 -5 -28 0 -7 5 -1 10 12 5 13 8 26 5 28 -2
2 -6 -3 -10 -12z"/>
<path d="M4553 7774 c-7 -18 12 -64 27 -64 6 0 15 11 22 25 8 19 8 28 -2 40
-16 19 -39 19 -47 -1z"/>
<path d="M4445 7684 c-20 -21 -19 -47 4 -68 17 -16 19 -15 35 8 21 33 20 49
-4 63 -15 10 -22 10 -35 -3z"/>
<path d="M4530 7579 c-11 -20 1 -49 21 -49 17 0 31 41 18 56 -16 19 -26 18
-39 -7z"/>
<path d="M4502 7408 c2 -28 7 -33 28 -33 21 0 26 5 28 33 3 30 1 32 -28 32
-29 0 -31 -2 -28 -32z"/>
<path d="M4504 7256 c-9 -22 2 -46 21 -46 12 0 15 8 13 27 -3 30 -25 42 -34
19z"/>
<path d="M5450 8103 c-43 -44 -55 -60 -35 -48 43 26 75 56 91 88 8 15 13 27
12 27 -2 0 -32 -30 -68 -67z"/>
<path d="M4975 6958 c-24 -80 -44 -123 -46 -103 0 6 -15 -42 -33 -105 -18 -63
-31 -119 -28 -124 7 -12 16 8 47 104 15 47 31 94 35 105 5 11 23 51 40 89 30
69 38 116 20 116 -5 0 -21 -37 -35 -82z"/>
<path d="M4939 7003 c-5 -14 -8 -30 -6 -36 1 -5 8 7 14 27 13 42 7 49 -8 9z"/>
<path d="M4905 6938 c-32 -97 -47 -157 -60 -245 -9 -58 -20 -114 -25 -124 -18
-32 -10 -35 10 -3 14 21 22 54 24 95 3 35 18 115 34 177 16 61 27 112 25 112
-2 0 -6 -6 -8 -12z"/>
<path d="M4931 6924 c0 -11 3 -14 6 -6 3 7 2 16 -1 19 -3 4 -6 -2 -5 -13z"/>
<path d="M3940 7631 c0 -6 5 -13 10 -16 6 -3 10 -16 11 -28 0 -12 3 -16 6 -9
7 18 -5 62 -17 62 -6 0 -10 -4 -10 -9z"/>
<path d="M4023 7235 c-3 -9 -3 -18 -1 -21 3 -3 8 4 11 16 6 23 -1 27 -10 5z"/>
<path d="M6962 7668 c-5 -7 -19 -33 -31 -58 l-22 -45 46 48 c25 26 43 52 40
57 -8 14 -20 13 -33 -2z"/>
<path d="M7551 7071 c-22 -40 -5 -75 24 -51 19 16 19 44 1 59 -12 10 -17 8
-25 -8z"/>
<path d="M7075 6959 c-9 -26 16 -55 40 -45 25 9 16 60 -12 64 -15 2 -23 -3
-28 -19z"/>
<path d="M5373 6643 c-15 -3 -23 -12 -23 -24 0 -16 7 -19 49 -19 50 0 71 16
48 39 -11 11 -32 12 -74 4z"/>
<path d="M4711 6504 c0 -11 3 -14 6 -6 3 7 2 16 -1 19 -3 4 -6 -2 -5 -13z"/>
<path d="M2690 6812 c0 -33 22 -48 40 -27 17 21 8 50 -18 53 -18 3 -22 -1 -22
-26z"/>
<path d="M2630 6775 c-15 -18 -5 -35 21 -35 24 0 37 29 18 41 -19 12 -25 11
-39 -6z"/>
<path d="M2840 6742 c0 -19 42 -62 61 -62 5 0 72 -33 149 -74 77 -41 140 -72
140 -70 0 5 -109 77 -210 138 -47 29 -97 60 -112 70 -27 18 -28 18 -28 -2z"/>
<path d="M2640 6571 c0 -21 26 -36 36 -20 9 15 -3 39 -21 39 -8 0 -15 -9 -15
-19z"/>
<path d="M2820 6481 c0 -12 6 -21 16 -21 9 0 14 7 12 17 -5 25 -28 28 -28 4z"/>
<path d="M3646 6212 c10 -18 51 -61 89 -95 82 -72 75 -61 -31 48 -51 52 -71
68 -58 47z"/>
<path d="M7723 6563 c9 -2 23 -2 30 0 6 3 -1 5 -18 5 -16 0 -22 -2 -12 -5z"/>
<path d="M6725 6050 c-3 -5 1 -10 10 -10 9 0 13 5 10 10 -3 6 -8 10 -10 10 -2
0 -7 -4 -10 -10z"/>
<path d="M3492 5788 c-7 -7 -12 -16 -12 -20 0 -12 28 -10 36 3 10 17 -10 31
-24 17z"/>
<path d="M8050 5625 c0 -8 6 -15 14 -15 22 0 28 17 10 24 -22 9 -24 8 -24 -9z"/>
<path d="M8185 5321 c-9 -15 13 -51 31 -51 11 0 14 8 12 27 -3 28 -30 43 -43
24z"/>
<path d="M8240 5137 c-30 -11 -48 -22 -40 -24 27 -6 153 22 158 35 6 19 -56
14 -118 -11z"/>
<path d="M7638 4958 c-91 -70 -307 -253 -303 -257 6 -6 112 69 215 152 52 42
103 77 112 77 22 0 48 27 48 51 0 27 -10 24 -72 -23z"/>
<path d="M5137 4978 c45 -67 51 -73 24 -23 -23 44 -45 75 -54 75 -3 0 10 -24
30 -52z"/>
<path d="M5467 4996 c-4 -10 -7 -40 -7 -68 0 -41 3 -51 20 -55 11 -3 20 -9 20
-14 0 -5 7 -9 15 -9 8 0 15 7 15 16 0 8 -4 13 -9 10 -11 -7 -21 17 -21 52 -1
15 -7 40 -14 57 -10 25 -13 27 -19 11z"/>
<path d="M5560 4901 c0 -26 10 -31 38 -20 33 13 28 39 -8 39 -23 0 -30 -5 -30
-19z"/>
<path d="M5805 4651 c-10 -31 5 -52 34 -49 31 4 39 29 16 52 -22 21 -42 20
-50 -3z"/>
<path d="M5860 4365 c0 -32 12 -65 22 -65 6 0 7 14 3 33 -8 38 -25 60 -25 32z"/>
<path d="M5782 4307 c-8 -10 -5 -20 13 -42 l25 -28 0 26 c0 50 -17 70 -38 44z"/>
<path d="M5784 4154 c-18 -14 -18 -15 4 -4 12 6 22 13 22 15 0 8 -5 6 -26 -11z"/>
<path d="M5306 4114 c11 -29 81 -100 167 -165 42 -33 77 -57 77 -54 0 5 -75
77 -198 190 -31 29 -50 41 -46 29z"/>
<path d="M5805 3935 c-25 -11 -27 -14 -12 -20 23 -9 47 1 47 20 0 8 -1 15 -2
14 -2 0 -16 -7 -33 -14z"/>
<path d="M5216 3804 c-11 -28 -6 -34 28 -34 33 0 63 21 52 38 -10 16 -74 13
-80 -4z"/>
<path d="M5952 3760 c0 -14 2 -19 5 -12 2 6 2 18 0 25 -3 6 -5 1 -5 -13z"/>
<path d="M5962 3700 c0 -19 2 -27 5 -17 2 9 2 25 0 35 -3 9 -5 1 -5 -18z"/>
<path d="M6466 5089 c-6 -34 -7 -121 0 -104 2 6 10 38 18 73 11 50 12 62 1 62
-7 0 -15 -14 -19 -31z"/>
<path d="M6892 5168 c6 -18 28 -21 28 -4 0 9 -7 16 -16 16 -9 0 -14 -5 -12
-12z"/>
<path d="M6756 4391 c-4 -51 -5 -95 -2 -98 6 -6 19 162 14 179 -3 7 -8 -29
-12 -81z"/>
<path d="M3244 4766 c-8 -21 3 -49 16 -41 5 3 10 15 10 25 0 25 -18 36 -26 16z"/>
<path d="M3320 4630 c0 -34 29 -57 48 -38 18 18 14 46 -7 58 -32 16 -41 12
-41 -20z"/>
<path d="M3400 4215 c0 -5 5 -17 10 -25 5 -8 10 -10 10 -5 0 6 -5 17 -10 25
-5 8 -10 11 -10 5z"/>
<path d="M3450 4125 c0 -5 5 -17 10 -25 5 -8 10 -10 10 -5 0 6 -5 17 -10 25
-5 8 -10 11 -10 5z"/>
<path d="M3474 4060 c3 -14 15 -70 27 -124 18 -89 38 -150 39 -120 0 24 -50
236 -60 252 -10 14 -10 13 -6 -8z"/>
<path d="M4137 4027 c-47 -59 -97 -127 -97 -132 0 -3 24 23 53 57 75 91 80 98
71 98 -5 -1 -17 -11 -27 -23z"/>
<path d="M4005 3715 c-3 -16 -11 -43 -17 -60 -14 -44 -24 -230 -11 -222 6 4
13 48 17 99 4 50 12 113 17 140 12 52 6 92 -6 43z"/>
<path d="M7622 4518 c-18 -18 -15 -36 9 -49 30 -16 46 2 31 36 -13 28 -22 31
-40 13z"/>
<path d="M7497 4503 c-16 -15 -6 -54 16 -62 31 -12 47 -3 47 25 0 30 -44 56
-63 37z"/>
<path d="M6965 4249 c-170 -84 -222 -121 -132 -94 61 19 260 118 265 133 7 23
-32 11 -133 -39z"/>
<path d="M7750 4160 c14 -11 30 -20 35 -20 6 0 -1 9 -15 20 -14 11 -29 20 -35
20 -5 0 1 -9 15 -20z"/>
<path d="M2751 4376 c-8 -10 -9 -16 -1 -21 5 -3 13 1 16 10 9 22 -1 29 -15 11z"/>
<path d="M2291 4266 c2 -2 27 -6 54 -9 34 -4 42 -3 25 3 -25 8 -87 13 -79 6z"/>
<path d="M2618 4143 c7 -3 16 -2 19 1 4 3 -2 6 -13 5 -11 0 -14 -3 -6 -6z"/>
<path d="M3080 3895 c0 -2 55 -41 122 -87 67 -45 147 -104 177 -131 66 -57 82
-47 19 12 -85 81 -318 232 -318 206z"/>
<path d="M3179 3736 c12 -13 50 -38 84 -55 66 -34 62 -30 -41 37 -46 29 -59
35 -43 18z"/>
<path d="M2965 3730 c27 -12 43 -12 25 0 -8 5 -22 9 -30 9 -10 0 -8 -3 5 -9z"/>
<path d="M6175 2274 c-31 -31 -9 -93 28 -78 17 6 30 45 21 67 -8 23 -32 28
-49 11z"/>
</g>
</svg>
